<svg width="1581" height="399" viewBox="0 0 1581 399" fill="none" xmlns="http://www.w3.org/2000/svg">
<rect width="1581" height="399" rx="92" fill="black"/>
<path d="M148.408 285.142L158.776 210.118C159.16 207.91 159.352 205.462 159.352 202.774C159.352 196.534 158.152 190.966 155.752 186.07C153.352 181.174 149.896 177.334 145.384 174.55C140.968 171.766 135.784 170.374 129.832 170.374C122.728 170.374 116.152 172.294 110.104 176.134C104.056 179.878 99.064 184.918 95.128 191.254C91.288 197.59 88.84 204.502 87.784 211.99L77.56 285.142H43L63.16 141.142H97.864L94.84 157.702C100.696 151.078 107.128 145.99 114.136 142.438C121.144 138.886 128.584 137.11 136.456 137.11C148.36 137.11 158.632 139.846 167.272 145.318C176.008 150.79 182.632 158.278 187.144 167.782C191.752 177.19 194.056 187.75 194.056 199.462C194.056 203.398 193.768 207.382 193.192 211.414L182.968 285.142H148.408Z" fill="white"/>
<path d="M363.132 141.142L253.836 357.142H216.684L253.116 284.998L221.868 141.142H259.02L276.444 237.766L325.692 141.142H363.132Z" fill="white"/>
<path d="M502.52 285.142H467.816L470.984 267.286C465.224 274.102 458.6 279.43 451.112 283.27C443.72 287.014 435.752 288.886 427.208 288.886C414.44 288.886 402.92 285.958 392.648 280.102C382.376 274.15 374.312 266.086 368.456 255.91C362.6 245.734 359.672 234.406 359.672 221.926C359.672 217.798 359.912 214.198 360.392 211.126C362.312 197.686 367.352 185.302 375.512 173.974C383.768 162.646 393.992 153.67 406.184 147.046C418.472 140.422 431.288 137.11 444.632 137.11C453.944 137.11 461.96 139.222 468.68 143.446C475.496 147.574 480.872 153.142 484.808 160.15L488.12 141.142H522.68L502.52 285.142ZM428.36 255.622C436.04 255.622 443.24 253.654 449.96 249.718C456.776 245.686 462.392 240.262 466.808 233.446C471.32 226.63 474.152 219.19 475.304 211.126C475.592 208.822 475.736 206.566 475.736 204.358C475.736 197.926 474.44 192.166 471.848 187.078C469.256 181.894 465.56 177.862 460.76 174.982C456.056 172.006 450.536 170.518 444.2 170.518C436.52 170.518 429.128 172.534 422.024 176.566C414.92 180.502 408.968 185.878 404.168 192.694C399.368 199.51 396.44 206.95 395.384 215.014C395.096 217.03 394.952 218.998 394.952 220.918C394.952 227.446 396.392 233.35 399.272 238.63C402.152 243.91 406.136 248.086 411.224 251.158C416.312 254.134 422.024 255.622 428.36 255.622Z" fill="white"/>
<path d="M596.68 288.886C584.584 288.886 573.64 285.958 563.848 280.102C554.152 274.246 546.52 266.278 540.952 256.198C535.48 246.118 532.744 234.886 532.744 222.502C532.744 218.758 533.032 214.966 533.608 211.126C535.528 197.686 540.424 185.302 548.296 173.974C556.168 162.646 565.912 153.67 577.528 147.046C589.24 140.422 601.432 137.11 614.104 137.11C626.296 137.11 637.24 140.038 646.936 145.894C656.632 151.75 664.216 159.766 669.688 169.942C675.16 180.022 677.896 191.302 677.896 203.782C677.896 208.006 677.656 211.75 677.176 215.014C675.256 228.358 670.36 240.694 662.488 252.022C654.616 263.35 644.824 272.326 633.112 278.95C621.496 285.574 609.352 288.886 596.68 288.886ZM597.544 254.326C604.84 254.326 611.752 252.358 618.28 248.422C624.904 244.486 630.424 239.206 634.84 232.582C639.256 225.958 641.992 218.806 643.048 211.126C643.336 209.11 643.48 207.094 643.48 205.078C643.48 198.934 642.184 193.318 639.592 188.23C637 183.046 633.352 179.014 628.648 176.134C624.04 173.158 618.856 171.67 613.096 171.67C605.896 171.67 598.984 173.686 592.36 177.718C585.832 181.654 580.36 186.934 575.944 193.558C571.528 200.182 568.792 207.334 567.736 215.014C567.448 217.126 567.304 219.238 567.304 221.35C567.304 227.59 568.6 233.254 571.192 238.342C573.784 243.334 577.384 247.27 581.992 250.15C586.6 252.934 591.784 254.326 597.544 254.326Z" fill="white"/>
<path d="M739.629 141.142L736.893 153.382C741.789 148.582 746.685 145.126 751.581 143.014C756.573 140.902 761.949 139.846 767.709 139.846C777.789 139.846 786.669 141.958 794.349 146.182C802.125 150.406 808.269 156.214 812.781 163.606C820.077 155.734 827.997 149.83 836.541 145.894C845.181 141.862 854.157 139.846 863.469 139.846C874.797 139.846 884.829 142.486 893.565 147.766C902.301 152.95 909.069 160.054 913.869 169.078C918.669 178.006 921.069 187.894 921.069 198.742C921.069 201.622 920.829 204.982 920.349 208.822L909.693 285.142H875.133L886.077 206.95C886.365 204.934 886.509 202.918 886.509 200.902C886.509 193.03 884.349 186.646 880.029 181.75C875.709 176.854 869.853 174.406 862.461 174.406C856.413 174.406 850.653 175.99 845.181 179.158C839.805 182.23 835.293 186.406 831.645 191.686C828.093 196.966 825.885 202.678 825.021 208.822L814.365 285.142H779.805L790.893 206.95C791.181 204.934 791.325 203.062 791.325 201.334C791.325 193.366 789.069 186.886 784.557 181.894C780.045 176.902 774.093 174.406 766.701 174.406C760.845 174.406 755.229 176.038 749.853 179.302C744.477 182.566 739.965 186.886 736.317 192.262C732.765 197.638 730.557 203.398 729.693 209.542L719.181 285.142H684.621L704.781 141.142H739.629Z" fill="white"/>
<path d="M981.61 123.142C976.714 123.142 972.634 121.51 969.37 118.246C966.106 114.886 964.474 110.806 964.474 106.006C964.474 102.742 965.29 99.7179 966.922 96.9339C968.65 94.0539 970.906 91.7499 973.69 90.0219C976.57 88.2939 979.594 87.4299 982.762 87.4299C987.658 87.4299 991.738 89.1099 995.002 92.4699C998.266 95.7339 999.898 99.7659 999.898 104.566C999.898 107.83 999.034 110.902 997.306 113.782C995.674 116.566 993.418 118.822 990.538 120.55C987.754 122.278 984.778 123.142 981.61 123.142ZM994.282 141.142L974.122 285.142H939.562L959.722 141.142H994.282Z" fill="white"/>
<path d="M1520.08 288.886C1515.19 288.886 1511.11 287.302 1507.84 284.134C1504.68 280.87 1503.09 276.79 1503.09 271.894C1503.09 270.646 1503.14 269.686 1503.24 269.014C1503.81 264.694 1505.83 260.998 1509.28 257.926C1512.84 254.758 1516.82 253.174 1521.24 253.174C1526.13 253.174 1530.21 254.806 1533.48 258.07C1536.74 261.334 1538.37 265.366 1538.37 270.166C1538.37 273.526 1537.51 276.646 1535.78 279.526C1534.15 282.406 1531.89 284.662 1529.01 286.294C1526.23 288.022 1523.25 288.886 1520.08 288.886Z" fill="white"/>
<path d="M1153.3 285.142H1118.59L1121.76 267.43C1116 274.246 1109.38 279.526 1101.89 283.27C1094.5 287.014 1086.53 288.886 1077.99 288.886C1065.22 288.886 1053.7 285.958 1043.43 280.102C1033.15 274.15 1025.09 266.086 1019.23 255.91C1013.38 245.734 1010.45 234.406 1010.45 221.926C1010.45 217.798 1010.69 214.198 1011.17 211.126C1013.09 197.782 1018.13 185.446 1026.29 174.118C1034.55 162.79 1044.77 153.814 1056.96 147.19C1069.25 140.566 1082.07 137.254 1095.41 137.254C1104.82 137.254 1112.88 139.318 1119.6 143.446C1126.32 147.574 1131.65 153.142 1135.59 160.15L1148.98 69.1419H1183.68L1153.3 285.142ZM1079.14 255.622C1086.82 255.622 1094.02 253.654 1100.74 249.718C1107.55 245.686 1113.17 240.262 1117.59 233.446C1122.1 226.63 1124.93 219.19 1126.08 211.126C1126.37 208.822 1126.51 206.566 1126.51 204.358C1126.51 197.926 1125.22 192.166 1122.63 187.078C1120.03 181.894 1116.34 177.862 1111.54 174.982C1106.83 172.006 1101.31 170.518 1094.98 170.518C1087.3 170.518 1079.91 172.534 1072.8 176.566C1065.7 180.502 1059.75 185.926 1054.95 192.838C1050.15 199.654 1047.22 207.046 1046.16 215.014C1045.87 217.126 1045.73 219.19 1045.73 221.206C1045.73 227.734 1047.17 233.638 1050.05 238.918C1052.93 244.102 1056.91 248.182 1062 251.158C1067.09 254.134 1072.8 255.622 1079.14 255.622Z" stroke="white" stroke-width="10"/>
<path d="M1251.43 288.886C1239.33 288.886 1228.39 285.958 1218.6 280.102C1208.9 274.246 1201.27 266.278 1195.7 256.198C1190.23 246.118 1187.49 234.886 1187.49 222.502C1187.49 218.758 1187.78 214.966 1188.36 211.126C1190.28 197.686 1195.17 185.302 1203.05 173.974C1210.92 162.646 1220.66 153.67 1232.28 147.046C1243.99 140.422 1256.18 137.11 1268.85 137.11C1281.24 137.11 1292.28 140.038 1301.97 145.894C1311.67 151.75 1319.16 159.718 1324.44 169.798C1329.81 179.878 1332.5 191.014 1332.5 203.206C1332.5 210.694 1331.45 218.23 1329.33 225.814H1223.06C1223.83 234.358 1226.76 241.222 1231.85 246.406C1237.03 251.59 1243.85 254.23 1252.29 254.326C1258.82 254.422 1265.01 252.886 1270.87 249.718C1276.73 246.454 1281.81 242.038 1286.13 236.47L1320.98 246.262C1313.3 259.222 1303.22 269.59 1290.74 277.366C1278.26 285.046 1265.16 288.886 1251.43 288.886ZM1298.66 198.022C1298.37 192.166 1296.89 186.934 1294.2 182.326C1291.51 177.622 1287.91 173.974 1283.4 171.382C1278.98 168.694 1273.99 167.35 1268.42 167.35C1262.37 167.35 1256.47 168.79 1250.71 171.67C1245.05 174.55 1240.05 178.486 1235.73 183.478C1231.41 188.47 1228.25 193.942 1226.23 199.894L1298.66 198.022Z" stroke="white" stroke-width="10"/>
<path d="M1383.98 285.142L1351.86 140.998H1388.15L1411.05 245.254L1463.9 140.998H1501.34L1428.47 285.142H1383.98Z" stroke="white" stroke-width="10"/>
<path d="M114.713 123.142L113.722 123.005L113.565 124.142H114.713V123.142ZM118.968 92.3517L117.983 92.1804L117.98 92.1976L117.977 92.2148L118.968 92.3517ZM117.727 82.4823L116.829 82.9225L116.829 82.9225L117.727 82.4823ZM113.472 77.7545L112.938 78.6004L112.947 78.6055L113.472 77.7545ZM98.9927 78.4045L99.5191 79.2549L99.5287 79.2487L98.9927 78.4045ZM92.8465 84.6099L91.997 84.0821L91.9913 84.0916L92.8465 84.6099ZM89.8325 93.12L88.8423 92.9804L88.8421 92.9816L89.8325 93.12ZM85.6365 123.142V124.142H86.5065L86.6269 123.28L85.6365 123.142ZM71.4529 123.142L70.4626 123.003L70.3032 124.142H71.4529V123.142ZM79.7267 64.0437V63.0437H78.8569L78.7364 63.905L79.7267 64.0437ZM93.9694 64.0437L94.9531 64.2233L95.1685 63.0437H93.9694V64.0437ZM92.7283 70.84L91.7446 70.6603L91.0997 74.192L93.4775 71.5023L92.7283 70.84ZM100.647 64.5755L100.195 63.6836L100.195 63.6836L100.647 64.5755ZM122.455 65.7575L121.92 66.6023L121.924 66.605L122.455 65.7575ZM130.61 74.9768L129.707 75.4057L129.712 75.4167L130.61 74.9768ZM133.092 92.8836L132.102 92.7422L132.102 92.7462L133.092 92.8836ZM128.896 123.142V124.142H129.767L129.887 123.279L128.896 123.142ZM199.443 123.142V124.142H200.313L200.434 123.281L199.443 123.142ZM185.2 123.142L184.216 122.967L184.007 124.142H185.2V123.142ZM186.501 115.814L187.485 115.988L188.134 112.332L185.737 115.168L186.501 115.814ZM178.345 122.374L178.797 123.266L178.801 123.263L178.345 122.374ZM154.351 121.073L153.85 121.939L153.856 121.942L154.351 121.073ZM141.113 92.7654L142.101 92.9198L142.103 92.9068L141.113 92.7654ZM147.318 77.5181L146.51 76.9291L146.507 76.9336L147.318 77.5181ZM159.906 66.4667L159.432 65.5864L159.429 65.588L159.906 66.4667ZM185.555 64.9892L185.023 65.8359L185.03 65.8403L185.037 65.8446L185.555 64.9892ZM192.174 71.8446L191.302 72.3343L192.677 74.7826L193.159 72.0163L192.174 71.8446ZM193.533 64.0437V63.0437H192.693L192.548 63.872L193.533 64.0437ZM207.717 64.0437L208.707 64.1823L208.867 63.0437H207.717V64.0437ZM177.872 108.604L178.378 109.467L178.381 109.464L177.872 108.604ZM184.787 101.926L183.953 101.374L183.948 101.382L184.787 101.926ZM188.274 92.7654L189.264 92.9068L189.265 92.8981L189.266 92.8894L188.274 92.7654ZM186.855 82.896L185.961 83.3432L185.964 83.3499L186.855 82.896ZM182.305 77.9317L181.77 78.7768L181.78 78.7831L181.79 78.7892L182.305 77.9317ZM166.407 78.5818L166.892 79.4566L166.901 79.4515L166.407 78.5818ZM159.079 85.2008L159.897 85.7766L159.897 85.7766L159.079 85.2008ZM155.474 94.3611L156.464 94.5025L156.466 94.4909L155.474 94.3611ZM161.975 109.195L161.458 110.051L161.47 110.058L161.975 109.195ZM224.613 121.073L224.096 121.929L224.099 121.932L224.613 121.073ZM215.216 111.263L214.337 111.74L214.341 111.747L215.216 111.263ZM212.202 92.7654L213.191 92.9138L213.192 92.9068L212.202 92.7654ZM218.23 77.5181L219.051 78.0887L219.051 78.0887L218.23 77.5181ZM230.227 66.4667L229.735 65.5962L229.732 65.598L230.227 66.4667ZM258.712 65.9939L259.229 65.1379L259.229 65.1379L258.712 65.9939ZM268.05 75.8633L267.169 76.3369L267.171 76.3404L268.05 75.8633ZM271.123 94.3611L270.134 94.2156L270.133 94.2186L271.123 94.3611ZM265.095 109.549L264.274 108.979L264.274 108.979L265.095 109.549ZM253.039 120.601L252.547 119.73L252.543 119.732L253.039 120.601ZM246.952 108.072L246.441 107.212L246.435 107.215L246.952 108.072ZM257.117 92.7654L256.127 92.624L256.126 92.6292L257.117 92.7654ZM255.698 83.3688L254.804 83.816L254.807 83.8227L255.698 83.3688ZM251.207 78.4045L250.664 79.2446L250.674 79.2511L250.685 79.2574L251.207 78.4045ZM236.314 79.0546L236.83 79.911L236.834 79.9088L236.314 79.0546ZM226.208 94.3611L225.218 94.2248L225.217 94.226L226.208 94.3611ZM227.627 103.935L226.736 104.389L226.739 104.396L227.627 103.935ZM232.059 108.781L231.529 109.629L231.535 109.633L231.542 109.637L232.059 108.781ZM296.754 64.0437L297.73 64.2618L298.002 63.0437H296.754V64.0437ZM295.631 69.067L294.655 68.8489L293.918 72.147L296.331 69.7811L295.631 69.067ZM301.659 64.8119L301.27 63.8909L301.263 63.8937L301.659 64.8119ZM319.211 66.1121L318.729 66.9883L318.734 66.9908L319.211 66.1121ZM326.776 73.263L325.922 73.784L326.611 74.9121L327.509 73.9427L326.776 73.263ZM336.527 65.9939L336.946 66.9022L336.95 66.9001L336.527 65.9939ZM359.93 66.7622L359.413 67.618L359.42 67.6222L359.93 66.7622ZM368.263 75.5087L367.38 75.9783L367.382 75.9823L368.263 75.5087ZM370.922 91.8198L371.913 91.9581L371.914 91.951L371.915 91.9439L370.922 91.8198ZM366.549 123.142V124.142H367.419L367.539 123.28L366.549 123.142ZM352.365 123.142L351.375 123.003L351.216 124.142H352.365V123.142ZM356.857 91.0516L355.867 90.9101L355.867 90.9129L356.857 91.0516ZM354.375 80.7094L355.125 80.0477L355.125 80.0477L354.375 80.7094ZM340.073 79.6456L340.569 80.5139L340.574 80.511L340.073 79.6456ZM334.518 84.7871L333.695 84.2187L333.688 84.229L334.518 84.7871ZM331.799 91.8198L330.809 91.6806L330.809 91.6816L331.799 91.8198ZM327.426 123.142V124.142H328.296L328.416 123.28L327.426 123.142ZM313.242 123.142L312.252 123.002L312.091 124.142H313.242V123.142ZM317.793 91.0516L316.803 90.9101L316.803 90.9112L317.793 91.0516ZM315.193 80.7685L314.451 81.439L314.451 81.439L315.193 80.7685ZM300.95 79.7047L301.469 80.5595L301.469 80.5595L300.95 79.7047ZM295.395 85.0235L294.567 84.462L294.56 84.4723L295.395 85.0235ZM292.676 92.1153L291.686 91.9761L291.686 91.9776L292.676 92.1153ZM288.362 123.142V124.142H289.233L289.353 123.28L288.362 123.142ZM274.178 123.142L273.188 123.003L273.029 124.142H274.178V123.142ZM282.452 64.0437V63.0437H281.582L281.462 63.905L282.452 64.0437ZM391.041 54.647L390.323 55.3438L390.328 55.349L390.334 55.3541L391.041 54.647ZM390.036 45.9005L389.178 45.386L389.173 45.3948L390.036 45.9005ZM392.814 43.0638L392.299 42.2063L392.293 42.2102L392.286 42.2141L392.814 43.0638ZM401.56 44.0684L400.843 44.7652L400.848 44.7704L400.853 44.7755L401.56 44.0684ZM402.506 52.815L401.648 52.3005L401.643 52.3093L402.506 52.815ZM399.728 55.5926L399.214 54.7351L399.207 54.739L399.201 54.743L399.728 55.5926ZM401.265 64.0437L402.255 64.1823L402.414 63.0437H401.265V64.0437ZM392.991 123.142V124.142H393.861L393.981 123.281L392.991 123.142ZM378.807 123.142L377.817 123.003L377.658 124.142H378.807V123.142ZM387.081 64.0437V63.0437H386.211L386.091 63.905L387.081 64.0437ZM444.155 64.0437V63.0437H443.286L443.165 63.9044L444.155 64.0437ZM458.398 64.0437L459.381 64.226L459.6 63.0437H458.398V64.0437ZM457.039 71.3718L456.055 71.1895L455.379 74.8386L457.797 72.0235L457.039 71.3718ZM465.135 64.871L465.592 65.7607L465.596 65.7584L465.135 64.871ZM489.247 66.1712L488.746 67.0365L488.752 67.0399L489.247 66.1712ZM499.117 76.0406L498.246 76.5332L498.25 76.5394L499.117 76.0406ZM502.426 94.3611L503.416 94.5025L503.418 94.4909L503.419 94.4793L502.426 94.3611ZM496.162 109.668L495.351 109.082L495.35 109.083L496.162 109.668ZM457.925 122.255L457.387 123.099L457.395 123.103L457.402 123.108L457.925 122.255ZM451.424 115.341L452.296 114.851L450.862 112.297L450.435 115.195L451.424 115.341ZM445.928 152.691V153.691H446.792L446.918 152.837L445.928 152.691ZM431.686 152.691L430.695 152.552L430.535 153.691H431.686V152.691ZM465.608 78.6409L466.113 79.5038L466.117 79.5016L465.608 78.6409ZM458.693 85.2599L457.86 84.7079L457.858 84.7108L458.693 85.2599ZM455.325 94.3611L454.333 94.2312L454.333 94.237L455.325 94.3611ZM456.684 104.29L455.783 104.723L455.788 104.734L455.793 104.743L456.684 104.29ZM461.176 109.254L460.641 110.099L460.647 110.103L460.653 110.107L461.176 109.254ZM477.073 108.604L477.558 109.478L477.562 109.476L477.073 108.604ZM484.46 101.926L483.648 101.342L483.643 101.35L484.46 101.926ZM488.124 92.7654L487.134 92.624L487.133 92.6356L488.124 92.7654ZM486.529 83.1324L487.407 82.6535L487.407 82.6535L486.529 83.1324ZM481.564 78.0499L481.048 78.906L481.057 78.9117L481.067 78.9172L481.564 78.0499ZM551.263 78.1681L550.666 78.9702L551.867 79.8646L552.233 78.4125L551.263 78.1681ZM536.371 78.4045L535.844 77.5542L535.838 77.5581L536.371 78.4045ZM530.343 84.6689L531.198 85.1873L531.201 85.1816L530.343 84.6689ZM527.329 93.2382L528.319 93.3772L528.319 93.3761L527.329 93.2382ZM523.133 123.142V124.142H524.002L524.123 123.281L523.133 123.142ZM508.831 123.142L507.841 123.003L507.681 124.142H508.831V123.142ZM517.105 64.1027V63.1027H516.235L516.114 63.964L517.105 64.1027ZM531.347 64.1027L532.331 64.2839L532.548 63.1027H531.347V64.1027ZM530.106 70.84L529.123 70.6588L528.48 74.1509L530.851 71.5077L530.106 70.84ZM538.025 64.6346L537.578 63.7402L537.573 63.7427L538.025 64.6346ZM554.987 63.3936L555.956 63.6379L556.184 62.7327L555.297 62.443L554.987 63.3936ZM565.12 121.073L564.603 121.929L564.607 121.932L565.12 121.073ZM555.724 111.263L554.845 111.74L554.848 111.747L555.724 111.263ZM552.71 92.7654L553.698 92.9138L553.699 92.9068L552.71 92.7654ZM558.738 77.5181L559.559 78.0887L559.559 78.0887L558.738 77.5181ZM570.734 66.4667L570.242 65.5962L570.239 65.598L570.734 66.4667ZM599.338 65.9939L599.855 65.1379L599.855 65.1379L599.338 65.9939ZM608.557 75.8042L607.672 76.2682L607.675 76.2748L608.557 75.8042ZM610.567 98.7934V99.7934H611.326L611.53 99.0617L610.567 98.7934ZM566.952 98.7934V97.7934H565.858L565.956 98.883L566.952 98.7934ZM570.557 107.244L569.844 107.945L569.85 107.952L570.557 107.244ZM578.949 110.495L578.964 109.495L578.961 109.495L578.949 110.495ZM586.573 108.604L587.049 109.483L587.06 109.477L586.573 108.604ZM592.837 103.167L593.108 102.204L592.46 102.022L592.047 102.554L592.837 103.167ZM607.139 107.185L607.999 107.695L608.663 106.575L607.41 106.223L607.139 107.185ZM594.728 119.951L595.252 120.802L595.257 120.799L594.728 119.951ZM597.979 87.3875L598.005 88.3871L599.028 88.3607L598.978 87.3383L597.979 87.3875ZM596.147 80.9458L595.279 81.4419L595.283 81.4496L596.147 80.9458ZM591.714 76.4543L591.194 77.3085L591.205 77.3151L591.216 77.3214L591.714 76.4543ZM578.299 76.5725L577.852 75.678L577.846 75.6811L578.299 76.5725ZM572.153 81.4185L572.909 82.0729L572.909 82.0729L572.153 81.4185ZM568.252 88.1557L567.305 87.8349L566.845 89.1924L568.278 89.1554L568.252 88.1557ZM636.874 124.147L636.964 123.151L636.951 123.15L636.938 123.149L636.874 124.147ZM623.872 120.246L623.349 121.098L623.355 121.102L623.872 120.246ZM616.367 111.204L616.023 110.265L615.114 110.597L615.417 111.517L616.367 111.204ZM628.659 106.713L629.578 106.319L629.205 105.448L628.316 105.773L628.659 106.713ZM632.264 110.495L631.731 111.341L631.741 111.348L631.752 111.354L632.264 110.495ZM645.679 110.377L646.172 111.247L646.177 111.244L645.679 110.377ZM649.344 105.294L648.373 105.052L648.361 105.101L648.354 105.15L649.344 105.294ZM647.63 101.689L647.124 102.552L647.141 102.562L647.159 102.572L647.63 101.689ZM642.488 99.7981L642.738 98.83L642.73 98.8278L642.721 98.8257L642.488 99.7981ZM641.011 99.4435L641.244 98.4711L641.225 98.4667L641.207 98.4629L641.011 99.4435ZM627.063 93.4746L627.684 92.6904L627.684 92.6904L627.063 93.4746ZM621.863 80.1184L622.853 80.2598L622.853 80.2583L621.863 80.1184ZM626.118 70.6036L626.878 71.2535L626.882 71.248L626.118 70.6036ZM634.746 64.28L635.138 65.2003L635.143 65.1981L634.746 64.28ZM658.504 65.1665L658.017 66.0398L658.024 66.0437L658.504 65.1665ZM666.837 73.5585L667.291 74.4493L668.183 73.9945L667.727 73.1034L666.837 73.5585ZM655.135 79.5274L654.218 79.927L654.643 80.901L655.59 80.4182L655.135 79.5274ZM651.471 75.686L650.948 76.5383L650.959 76.5453L650.971 76.5519L651.471 75.686ZM638.529 75.9815L639.048 76.836L639.054 76.8323L639.06 76.8286L638.529 75.9815ZM634.983 81.3594L633.994 81.2111L633.99 81.2355L633.988 81.26L634.983 81.3594ZM634.924 81.9504L633.928 81.851L633.924 81.9006V81.9504H634.924ZM636.46 84.6099L635.96 85.476L635.96 85.476L636.46 84.6099ZM641.129 86.3828L640.857 87.345L640.865 87.3475L640.874 87.3499L641.129 86.3828ZM644.379 87.3875L643.998 88.3121L644.04 88.3292L644.083 88.3425L644.379 87.3875ZM662.286 106.713L661.296 106.571L661.296 106.573L662.286 106.713ZM658.09 115.755L657.335 115.099L657.334 115.1L658.09 115.755ZM682.855 121.073L682.338 121.929L682.342 121.932L682.855 121.073ZM673.458 111.263L672.579 111.74L672.583 111.747L673.458 111.263ZM670.444 92.7654L671.433 92.9138L671.434 92.9068L670.444 92.7654ZM676.472 77.5181L677.294 78.0887L677.294 78.0887L676.472 77.5181ZM688.469 66.4667L687.977 65.5962L687.974 65.598L688.469 66.4667ZM717.073 65.9939L717.59 65.1379L717.59 65.1379L717.073 65.9939ZM726.292 75.8042L725.406 76.2682L725.41 76.2748L726.292 75.8042ZM728.302 98.7934V99.7934H729.061L729.265 99.0617L728.302 98.7934ZM684.687 98.7934V97.7934H683.593L683.691 98.883L684.687 98.7934ZM688.292 107.244L687.578 107.945L687.585 107.952L688.292 107.244ZM696.684 110.495L696.699 109.495L696.695 109.495L696.684 110.495ZM704.308 108.604L704.784 109.483L704.795 109.477L704.308 108.604ZM710.572 103.167L710.843 102.204L710.195 102.022L709.782 102.554L710.572 103.167ZM724.874 107.185L725.734 107.695L726.398 106.575L725.144 106.223L724.874 107.185ZM712.463 119.951L712.987 120.802L712.992 120.799L712.463 119.951ZM715.714 87.3875L715.739 88.3871L716.763 88.3607L716.712 87.3383L715.714 87.3875ZM713.882 80.9458L713.013 81.4419L713.018 81.4496L713.882 80.9458ZM709.449 76.4543L708.929 77.3085L708.94 77.3151L708.951 77.3214L709.449 76.4543ZM696.034 76.5725L695.587 75.678L695.581 75.6811L696.034 76.5725ZM689.888 81.4185L690.644 82.0729L690.644 82.0729L689.888 81.4185ZM685.987 88.1557L685.04 87.8349L684.58 89.1924L686.013 89.1554L685.987 88.1557ZM776.567 123.142L775.577 123.005L775.42 124.142H776.567V123.142ZM780.822 92.3517L779.837 92.1804L779.834 92.1976L779.832 92.2148L780.822 92.3517ZM779.581 82.4823L778.683 82.9225L778.683 82.9225L779.581 82.4823ZM775.326 77.7545L774.793 78.6004L774.801 78.6055L775.326 77.7545ZM760.847 78.4045L761.374 79.2549L761.383 79.2487L760.847 78.4045ZM754.701 84.6099L753.851 84.0821L753.846 84.0916L754.701 84.6099ZM751.687 93.12L750.697 92.9804L750.697 92.9816L751.687 93.12ZM747.491 123.142V124.142H748.361L748.481 123.28L747.491 123.142ZM733.307 123.142L732.317 123.003L732.158 124.142H733.307V123.142ZM741.581 64.0437V63.0437H740.711L740.591 63.905L741.581 64.0437ZM755.824 64.0437L756.808 64.2233L757.023 63.0437H755.824V64.0437ZM754.583 70.84L753.599 70.6603L752.954 74.192L755.332 71.5023L754.583 70.84ZM762.502 64.5755L762.05 63.6836L762.05 63.6836L762.502 64.5755ZM784.309 65.7575L783.774 66.6023L783.778 66.605L784.309 65.7575ZM792.465 74.9768L791.561 75.4057L791.567 75.4167L792.465 74.9768ZM794.947 92.8836L793.957 92.7422L793.956 92.7462L794.947 92.8836ZM790.751 123.142V124.142H791.622L791.741 123.279L790.751 123.142ZM829.985 79.2319V78.2319H829.116L828.995 79.092L829.985 79.2319ZM823.779 123.142V124.142H824.648L824.77 123.282L823.779 123.142ZM809.596 123.142L808.606 123.002L808.445 124.142H809.596V123.142ZM815.801 79.2319L816.791 79.3718L816.952 78.2319H815.801V79.2319ZM806.996 79.2319L806.005 79.0957L805.849 80.2319H806.996V79.2319ZM808.946 65.0483V64.0483H808.074L807.955 64.9121L808.946 65.0483ZM817.751 65.0483V66.0483H818.622L818.742 65.186L817.751 65.0483ZM820.47 45.4868V44.4868H819.599L819.479 45.3491L820.47 45.4868ZM834.654 45.4868L835.644 45.6244L835.802 44.4868H834.654V45.4868ZM831.935 65.0483L830.945 64.9107L830.786 66.0483H831.935V65.0483ZM843.518 65.0483L844.509 65.1845L844.665 64.0483H843.518V65.0483ZM841.568 79.2319V80.2319H842.44L842.559 79.3681L841.568 79.2319ZM863.802 124.147L863.892 123.151L863.879 123.15L863.866 123.149L863.802 124.147ZM850.8 120.246L850.277 121.098L850.283 121.102L850.8 120.246ZM843.295 111.204L842.952 110.265L842.042 110.597L842.345 111.517L843.295 111.204ZM855.587 106.713L856.506 106.319L856.133 105.448L855.244 105.773L855.587 106.713ZM859.192 110.495L858.659 111.341L858.67 111.348L858.68 111.354L859.192 110.495ZM872.608 110.377L873.1 111.247L873.105 111.244L872.608 110.377ZM876.272 105.294L875.302 105.052L875.289 105.101L875.282 105.15L876.272 105.294ZM874.558 101.689L874.052 102.552L874.069 102.562L874.087 102.572L874.558 101.689ZM869.416 99.7981L869.667 98.83L869.658 98.8278L869.65 98.8257L869.416 99.7981ZM867.939 99.4435L868.172 98.4711L868.154 98.4667L868.135 98.4629L867.939 99.4435ZM853.992 93.4746L854.612 92.6904L854.612 92.6904L853.992 93.4746ZM848.791 80.1184L849.781 80.2598L849.781 80.2583L848.791 80.1184ZM853.046 70.6036L853.806 71.2535L853.811 71.248L853.046 70.6036ZM861.674 64.28L862.066 65.2003L862.071 65.1981L861.674 64.28ZM885.432 65.1665L884.945 66.0398L884.952 66.0437L885.432 65.1665ZM893.765 73.5585L894.219 74.4493L895.111 73.9945L894.655 73.1034L893.765 73.5585ZM882.063 79.5274L881.147 79.927L881.571 80.901L882.518 80.4182L882.063 79.5274ZM878.399 75.686L877.876 76.5383L877.887 76.5453L877.899 76.5519L878.399 75.686ZM865.457 75.9815L865.976 76.836L865.982 76.8323L865.988 76.8286L865.457 75.9815ZM861.911 81.3594L860.922 81.2111L860.918 81.2355L860.916 81.26L861.911 81.3594ZM861.852 81.9504L860.857 81.851L860.852 81.9006V81.9504H861.852ZM863.388 84.6099L862.889 85.476L862.889 85.476L863.388 84.6099ZM868.057 86.3828L867.785 87.345L867.794 87.3475L867.803 87.3499L868.057 86.3828ZM871.307 87.3875L870.927 88.3121L870.968 88.3292L871.011 88.3425L871.307 87.3875ZM889.214 106.713L888.224 106.571L888.224 106.573L889.214 106.713ZM885.018 115.755L884.263 115.099L884.262 115.1L885.018 115.755ZM115.703 123.279L119.959 92.4886L117.977 92.2148L113.722 123.005L115.703 123.279ZM119.953 92.5231C120.122 91.5505 120.204 90.4874 120.204 89.3377H118.204C118.204 90.3944 118.129 91.3406 117.983 92.1804L119.953 92.5231ZM120.204 89.3377C120.204 86.6463 119.686 84.207 118.625 82.0422L116.829 82.9225C117.738 84.7763 118.204 86.9073 118.204 89.3377H120.204ZM118.625 82.0422C117.559 79.8685 116.014 78.148 113.997 76.9034L112.947 78.6055C114.633 79.6461 115.925 81.0774 116.829 82.9225L118.625 82.0422ZM114.005 76.9085C112.012 75.6518 109.694 75.0406 107.089 75.0406V77.0406C109.37 77.0406 111.307 77.572 112.939 78.6004L114.005 76.9085ZM107.089 75.0406C103.982 75.0406 101.098 75.8835 98.4567 77.5603L99.5287 79.2487C101.852 77.7736 104.365 77.0406 107.089 77.0406V75.0406ZM98.4664 77.5543C95.8467 79.176 93.6897 81.3574 91.9971 84.0822L93.696 85.1375C95.234 82.6617 97.1745 80.7062 99.5191 79.2548L98.4664 77.5543ZM91.9913 84.0916C90.3437 86.8101 89.2942 89.776 88.8423 92.9804L90.8227 93.2596C91.2376 90.3177 92.1974 87.6103 93.7017 85.1282L91.9913 84.0916ZM88.8421 92.9816L84.6462 123.004L86.6269 123.28L90.8229 93.2584L88.8421 92.9816ZM85.6365 122.142H71.4529V124.142H85.6365V122.142ZM72.4433 123.281L80.717 64.1823L78.7364 63.905L70.4626 123.003L72.4433 123.281ZM79.7267 65.0437H93.9694V63.0437H79.7267V65.0437ZM92.9856 63.864L91.7446 70.6603L93.7121 71.0196L94.9531 64.2233L92.9856 63.864ZM93.4775 71.5023C95.8076 68.8666 98.3494 66.8615 101.1 65.4675L100.195 63.6836C97.1934 65.2051 94.4557 67.3763 91.9791 70.1776L93.4775 71.5023ZM101.1 65.4675C103.835 64.0809 106.734 63.3889 109.808 63.3889V61.3889C106.42 61.3889 103.212 62.1546 100.195 63.6836L101.1 65.4675ZM109.808 63.3889C114.535 63.3889 118.559 64.4737 121.92 66.6023L122.99 64.9127C119.259 62.5499 114.851 61.3889 109.808 61.3889V63.3889ZM121.924 66.605C125.344 68.7473 127.935 71.6736 129.707 75.4057L131.514 74.548C129.582 70.479 126.736 67.2591 122.986 64.91L121.924 66.605ZM129.712 75.4167C131.529 79.1254 132.447 83.3061 132.447 87.9785H134.447C134.447 83.0375 133.474 78.5504 131.508 74.537L129.712 75.4167ZM132.447 87.9785C132.447 89.5449 132.332 91.1327 132.102 92.7422L134.082 93.025C134.325 91.3251 134.447 89.6427 134.447 87.9785H132.447ZM132.102 92.7462L127.906 123.005L129.887 123.279L134.083 93.021L132.102 92.7462ZM128.896 122.142H114.713V124.142H128.896V122.142ZM199.443 122.142H185.2V124.142H199.443V122.142ZM186.185 123.317L187.485 115.988L185.516 115.639L184.216 122.967L186.185 123.317ZM185.737 115.168C183.453 117.871 180.837 119.972 177.889 121.484L178.801 123.263C181.999 121.624 184.82 119.351 187.264 116.459L185.737 115.168ZM177.893 121.482C175.004 122.945 171.889 123.678 168.535 123.678V125.678C172.193 125.678 175.619 124.875 178.797 123.266L177.893 121.482ZM168.535 123.678C163.454 123.678 158.899 122.515 154.846 120.205L153.856 121.942C158.234 124.438 163.135 125.678 168.535 125.678V123.678ZM154.853 120.208C150.787 117.852 147.604 114.669 145.289 110.646L143.556 111.644C146.048 115.974 149.484 119.409 153.85 121.939L154.853 120.208ZM145.289 110.646C142.979 106.631 141.818 102.156 141.818 97.1978H139.818C139.818 102.483 141.06 107.306 143.556 111.644L145.289 110.646ZM141.818 97.1978C141.818 95.5397 141.914 94.1161 142.101 92.9198L140.125 92.611C139.918 93.9363 139.818 95.4676 139.818 97.1978H141.818ZM142.103 92.9068C142.868 87.5556 144.873 82.6244 148.13 78.1025L146.507 76.9336C143.067 81.7099 140.935 86.9436 140.123 92.624L142.103 92.9068ZM148.127 78.107C151.428 73.5766 155.512 69.9923 160.384 67.3454L159.429 65.588C154.294 68.3781 149.985 72.1614 146.51 76.9291L148.127 78.107ZM160.381 67.3469C165.285 64.7033 170.383 63.3889 175.686 63.3889V61.3889C170.036 61.3889 164.614 62.7931 159.432 65.5864L160.381 67.3469ZM175.686 63.3889C179.352 63.3889 182.45 64.2188 185.023 65.8359L186.087 64.1426C183.144 62.2926 179.663 61.3889 175.686 61.3889V63.3889ZM185.037 65.8446C187.686 67.4486 189.771 69.6072 191.302 72.3343L193.046 71.3549C191.347 68.3298 189.019 65.9182 186.073 64.1339L185.037 65.8446ZM193.159 72.0163L194.518 64.2153L192.548 63.872L191.189 71.673L193.159 72.0163ZM193.533 65.0437H207.717V63.0437H193.533V65.0437ZM206.727 63.905L198.453 123.003L200.434 123.281L208.707 64.1823L206.727 63.905ZM169.008 112.027C172.34 112.027 175.469 111.17 178.378 109.467L177.367 107.741C174.76 109.268 171.979 110.027 169.008 110.027V112.027ZM178.381 109.464C181.315 107.729 183.732 105.393 185.626 102.469L183.948 101.382C182.217 104.053 180.024 106.169 177.363 107.743L178.381 109.464ZM185.621 102.478C187.554 99.5572 188.77 96.3636 189.264 92.9068L187.284 92.624C186.832 95.7862 185.723 98.6995 183.953 101.374L185.621 102.478ZM189.266 92.8894C189.389 91.9048 189.451 90.9375 189.451 89.9878H187.451C187.451 90.8504 187.395 91.7348 187.281 92.6414L189.266 92.8894ZM189.451 89.9878C189.451 87.2104 188.89 84.6877 187.746 82.4421L185.964 83.3499C186.948 85.2806 187.451 87.4857 187.451 89.9878H189.451ZM187.75 82.4488C186.604 80.1575 184.958 78.3577 182.819 77.0743L181.79 78.7892C183.591 79.8698 184.979 81.3794 185.961 83.3432L187.75 82.4488ZM182.839 77.0867C180.728 75.7506 178.271 75.0997 175.508 75.0997V77.0997C177.946 77.0997 180.021 77.6701 181.77 78.7768L182.839 77.0867ZM175.508 75.0997C172.172 75.0997 168.97 75.9776 165.914 77.7121L166.901 79.4515C169.676 77.8766 172.541 77.0997 175.508 77.0997V75.0997ZM165.923 77.7071C162.871 79.3977 160.316 81.7076 158.261 84.6251L159.897 85.7766C161.782 83.0994 164.112 80.9967 166.892 79.4565L165.923 77.7071ZM158.261 84.6251C156.201 87.5513 154.937 90.7571 154.483 94.2312L156.466 94.4909C156.877 91.3461 158.018 88.445 159.897 85.7766L158.261 84.6251ZM154.484 94.2196C154.36 95.091 154.297 95.946 154.297 96.7841H156.297C156.297 96.0462 156.352 95.2858 156.464 94.5025L154.484 94.2196ZM154.297 96.7841C154.297 99.6159 154.923 102.206 156.192 104.532L157.948 103.574C156.852 101.567 156.297 99.3106 156.297 96.7841H154.297ZM156.192 104.532C157.458 106.853 159.216 108.697 161.458 110.051L162.492 108.339C160.557 107.171 159.046 105.588 157.948 103.574L156.192 104.532ZM161.47 110.058C163.723 111.376 166.244 112.027 169.008 112.027V110.027C166.571 110.027 164.403 109.457 162.48 108.332L161.47 110.058ZM238.087 123.678C233.292 123.678 228.98 122.52 225.126 120.215L224.099 121.932C228.283 124.433 232.953 125.678 238.087 125.678V123.678ZM225.13 120.217C221.303 117.906 218.293 114.766 216.091 110.78L214.341 111.747C216.709 116.034 219.964 119.434 224.096 121.929L225.13 120.217ZM216.095 110.786C213.935 106.807 212.847 102.364 212.847 97.4342H210.847C210.847 102.67 212.006 107.445 214.337 111.74L216.095 110.786ZM212.847 97.4342C212.847 95.9491 212.962 94.4424 213.191 92.9138L211.213 92.6171C210.97 94.2403 210.847 95.8462 210.847 97.4342H212.847ZM213.192 92.9068C213.957 87.5478 215.908 82.6119 219.051 78.0887L217.409 76.9474C214.091 81.7223 212.022 86.9513 211.212 92.624L213.192 92.9068ZM219.051 78.0887C222.2 73.558 226.089 69.9777 230.722 67.3354L229.732 65.598C224.831 68.3927 220.722 72.1799 217.409 76.9474L219.051 78.0887ZM230.719 67.3371C235.385 64.6981 240.22 63.3889 245.238 63.3889V61.3889C239.854 61.3889 234.682 62.7982 229.735 65.5963L230.719 67.3371ZM245.238 63.3889C250.074 63.3889 254.384 64.548 258.195 66.8499L259.229 65.1379C255.082 62.6332 250.409 61.3889 245.238 61.3889V63.3889ZM258.195 66.8499C262.018 69.1587 265.006 72.3151 267.169 76.3369L268.931 75.3897C266.602 71.059 263.365 67.6358 259.229 65.1379L258.195 66.8499ZM267.171 76.3404C269.33 80.3181 270.418 84.7811 270.418 89.7514H272.418C272.418 84.478 271.261 79.6822 268.929 75.3862L267.171 76.3404ZM270.418 89.7514C270.418 91.449 270.322 92.9353 270.134 94.2156L272.112 94.5066C272.318 93.1077 272.418 91.5209 272.418 89.7514H270.418ZM270.133 94.2186C269.368 99.5375 267.418 104.454 264.274 108.979L265.916 110.12C269.233 105.346 271.302 100.137 272.113 94.5035L270.133 94.2186ZM264.274 108.979C261.126 113.508 257.219 117.088 252.547 119.73L253.531 121.471C258.472 118.677 262.602 114.889 265.916 110.12L264.274 108.979ZM252.543 119.732C247.918 122.369 243.104 123.678 238.087 123.678V125.678C243.471 125.678 248.625 124.269 253.534 121.469L252.543 119.732ZM238.442 111.495C241.626 111.495 244.64 110.633 247.468 108.928L246.435 107.215C243.905 108.741 241.246 109.495 238.442 109.495V111.495ZM247.463 108.932C250.314 107.237 252.688 104.964 254.58 102.126L252.916 101.016C251.184 103.615 249.027 105.676 246.441 107.212L247.463 108.932ZM254.58 102.126C256.474 99.285 257.653 96.2073 258.107 92.9016L256.126 92.6292C255.714 95.6273 254.647 98.4201 252.916 101.016L254.58 102.126ZM258.107 92.9068C258.231 92.0331 258.294 91.1585 258.294 90.2833H256.294C256.294 91.0629 256.238 91.843 256.127 92.624L258.107 92.9068ZM258.294 90.2833C258.294 87.6162 257.73 85.1541 256.589 82.9149L254.807 83.8227C255.794 85.7597 256.294 87.9073 256.294 90.2833H258.294ZM256.593 82.9216C255.45 80.6356 253.827 78.8364 251.729 77.5517L250.685 79.2574C252.447 80.3366 253.819 81.8469 254.804 83.816L256.593 82.9216ZM251.749 77.5645C249.688 76.2333 247.37 75.5725 244.824 75.5725V77.5725C247.006 77.5725 248.943 78.133 250.664 79.2446L251.749 77.5645ZM244.824 75.5725C241.672 75.5725 238.657 76.4579 235.794 78.2004L236.834 79.9088C239.408 78.3418 242.067 77.5725 244.824 77.5725V75.5725ZM235.798 78.1982C232.987 79.893 230.635 82.1652 228.745 85.0007L230.409 86.1101C232.143 83.5086 234.283 81.4469 236.83 79.911L235.798 78.1982ZM228.745 85.0007C226.851 87.8415 225.672 90.9191 225.218 94.2248L227.199 94.4973C227.611 91.4992 228.678 88.7064 230.409 86.1101L228.745 85.0007ZM225.217 94.226C225.093 95.1371 225.031 96.049 225.031 96.9614H227.031C227.031 96.1402 227.087 95.3186 227.199 94.4962L225.217 94.226ZM225.031 96.9614C225.031 99.6652 225.594 102.147 226.736 104.389L228.518 103.481C227.532 101.546 227.031 99.3794 227.031 96.9614H225.031ZM226.739 104.396C227.882 106.597 229.481 108.349 231.529 109.629L232.589 107.933C230.855 106.849 229.498 105.37 228.514 103.474L226.739 104.396ZM231.542 109.637C233.6 110.88 235.909 111.495 238.442 111.495V109.495C236.247 109.495 234.3 108.967 232.576 107.925L231.542 109.637ZM295.778 63.8255L294.655 68.8489L296.607 69.2852L297.73 64.2618L295.778 63.8255ZM296.331 69.7811C298.277 67.8738 300.186 66.5364 302.055 65.7301L301.263 63.8937C299.114 64.821 297.004 66.3203 294.931 68.3529L296.331 69.7811ZM302.049 65.7329C303.967 64.9215 306.04 64.5118 308.278 64.5118V62.5118C305.789 62.5118 303.449 62.9688 301.27 63.891L302.049 65.7329ZM308.278 64.5118C312.272 64.5118 315.746 65.3474 318.729 66.9883L319.693 65.2359C316.373 63.4096 312.558 62.5118 308.278 62.5118V64.5118ZM318.734 66.9908C321.774 68.6422 324.164 70.904 325.922 73.784L327.629 72.742C325.684 69.5546 323.031 67.049 319.689 65.2334L318.734 66.9908ZM327.509 73.9427C330.427 70.7946 333.574 68.4555 336.946 66.9022L336.109 65.0856C332.468 66.763 329.113 69.2699 326.042 72.5832L327.509 73.9427ZM336.95 66.9001C340.367 65.3056 343.907 64.5118 347.579 64.5118V62.5118C343.607 62.5118 339.779 63.3727 336.104 65.0877L336.95 66.9001ZM347.579 64.5118C352.066 64.5118 356 65.5555 359.413 67.618L360.447 65.9063C356.689 63.635 352.389 62.5118 347.579 62.5118V64.5118ZM359.42 67.6222C362.846 69.6556 365.496 72.4356 367.38 75.9783L369.146 75.0391C367.09 71.1749 364.184 68.1239 360.44 65.9022L359.42 67.6222ZM367.382 75.9823C369.268 79.4906 370.218 83.3842 370.218 87.683H372.218C372.218 83.0776 371.197 78.855 369.144 75.0352L367.382 75.9823ZM370.218 87.683C370.218 88.8122 370.124 90.148 369.93 91.6958L371.915 91.9439C372.115 90.3398 372.218 88.9177 372.218 87.683H370.218ZM369.932 91.6816L365.559 123.004L367.539 123.28L371.913 91.9581L369.932 91.6816ZM366.549 122.142H352.365V124.142H366.549V122.142ZM353.356 123.281L357.847 91.1902L355.867 90.9129L351.375 123.003L353.356 123.281ZM357.847 91.193C357.972 90.3192 358.034 89.4446 358.034 88.5694H356.034C356.034 89.349 355.979 90.1291 355.867 90.9101L357.847 91.193ZM358.034 88.5694C358.034 85.1476 357.09 82.2757 355.125 80.0477L353.625 81.371C355.205 83.1617 356.034 85.5298 356.034 88.5694H358.034ZM355.125 80.0477C353.136 77.7936 350.443 76.6954 347.165 76.6954V78.6954C349.954 78.6954 352.068 79.6065 353.625 81.371L355.125 80.0477ZM347.165 76.6954C344.499 76.6954 341.963 77.396 339.572 78.7802L340.574 80.511C342.675 79.2948 344.867 78.6954 347.165 78.6954V76.6954ZM339.577 78.7774C337.236 80.1151 335.274 81.9333 333.695 84.2187L335.341 85.3556C336.756 83.3071 338.498 81.6976 340.569 80.5138L339.577 78.7774ZM333.688 84.229C332.148 86.5183 331.185 89.0051 330.809 91.6806L332.79 91.9591C333.122 89.5915 333.972 87.3899 335.348 85.3453L333.688 84.229ZM330.809 91.6816L326.436 123.004L328.416 123.28L332.79 91.9581L330.809 91.6816ZM327.426 122.142H313.242V124.142H327.426V122.142ZM314.233 123.282L318.783 91.192L316.803 90.9112L312.252 123.002L314.233 123.282ZM318.783 91.193C318.907 90.3268 318.97 89.5107 318.97 88.7467H316.97C316.97 89.4011 316.916 90.1216 316.803 90.9101L318.783 91.193ZM318.97 88.7467C318.97 85.2772 317.982 82.3634 315.935 80.0979L314.451 81.439C316.107 83.271 316.97 85.6761 316.97 88.7467H318.97ZM315.935 80.0979C313.873 77.8174 311.15 76.6954 307.864 76.6954V78.6954C310.647 78.6954 312.809 79.6221 314.451 81.439L315.935 80.0979ZM307.864 76.6954C305.265 76.6954 302.782 77.4227 300.431 78.8499L301.469 80.5595C303.531 79.3076 305.658 78.6954 307.864 78.6954V76.6954ZM300.431 78.8499C298.098 80.2664 296.142 82.141 294.567 84.462L296.222 85.585C297.642 83.4934 299.389 81.8221 301.469 80.5595L300.431 78.8499ZM294.56 84.4723C293.024 86.7977 292.062 89.3016 291.686 91.9761L293.666 92.2546C294 89.886 294.85 87.662 296.229 85.5748L294.56 84.4723ZM291.686 91.9776L287.372 123.004L289.353 123.28L293.667 92.2531L291.686 91.9776ZM288.362 122.142H274.178V124.142H288.362V122.142ZM275.169 123.281L283.443 64.1823L281.462 63.905L273.188 123.003L275.169 123.281ZM282.452 65.0437H296.754V63.0437H282.452V65.0437ZM396.064 55.6564C394.302 55.6564 392.888 55.0797 391.748 53.9399L390.334 55.3541C391.873 56.8935 393.807 57.6564 396.064 57.6564V55.6564ZM391.758 53.9502C390.605 52.763 390.031 51.3406 390.031 49.6237H388.031C388.031 51.8467 388.798 53.7731 390.323 55.3438L391.758 53.9502ZM390.031 49.6237C390.031 48.4598 390.32 47.3936 390.899 46.4062L389.173 45.3948C388.413 46.6925 388.031 48.1085 388.031 49.6237H390.031ZM390.893 46.415C391.523 45.3659 392.337 44.5366 393.341 43.9134L392.286 42.2141C391.005 43.0093 389.967 44.0712 389.178 45.386L390.893 46.415ZM393.328 43.9213C394.364 43.2995 395.429 43 396.537 43V41C395.044 41 393.627 41.4097 392.299 42.2063L393.328 43.9213ZM396.537 43C398.29 43 399.701 43.5897 400.843 44.7652L402.277 43.3717C400.74 41.7893 398.803 41 396.537 41V43ZM400.853 44.7755C401.997 45.9194 402.569 47.3162 402.569 49.0327H404.569C404.569 46.8093 403.803 44.8966 402.267 43.3613L400.853 44.7755ZM402.569 49.0327C402.569 50.1856 402.267 51.2692 401.648 52.3005L403.363 53.3295C404.163 51.9968 404.569 50.5589 404.569 49.0327H402.569ZM401.643 52.3093C401.062 53.3013 400.258 54.1085 399.214 54.7351L400.243 56.4501C401.562 55.6583 402.61 54.6138 403.368 53.3207L401.643 52.3093ZM399.201 54.743C398.211 55.3574 397.171 55.6564 396.064 55.6564V57.6564C397.557 57.6564 398.96 57.2462 400.255 56.4422L399.201 54.743ZM400.274 63.905L392.001 123.003L393.981 123.281L402.255 64.1823L400.274 63.905ZM392.991 122.142H378.807V124.142H392.991V122.142ZM379.798 123.281L388.071 64.1823L386.091 63.905L377.817 123.003L379.798 123.281ZM387.081 65.0437H401.265V63.0437H387.081V65.0437ZM444.155 65.0437H458.398V63.0437H444.155V65.0437ZM457.415 63.8613L456.055 71.1895L458.022 71.5542L459.381 64.226L457.415 63.8613ZM457.797 72.0235C460.124 69.3149 462.723 67.2328 465.592 65.7607L464.679 63.9813C461.559 65.5824 458.76 67.8342 456.28 70.7202L457.797 72.0235ZM465.596 65.7584C468.482 64.2593 471.613 63.5071 475.005 63.5071V61.5071C471.304 61.5071 467.856 62.3309 464.674 63.9836L465.596 65.7584ZM475.005 63.5071C480.123 63.5071 484.695 64.6893 488.746 67.0364L489.749 65.3059C485.368 62.7676 480.445 61.5071 475.005 61.5071V63.5071ZM488.752 67.0399C492.813 69.355 495.972 72.5157 498.246 76.5332L499.987 75.548C497.533 71.213 494.113 67.794 489.742 65.3024L488.752 67.0399ZM498.25 76.5394C500.56 80.5543 501.722 85.0296 501.722 89.9878H503.722C503.722 84.7023 502.48 79.8794 499.983 75.5418L498.25 76.5394ZM501.722 89.9878C501.722 91.1988 501.627 92.6157 501.433 94.2428L503.419 94.4793C503.619 92.797 503.722 91.2983 503.722 89.9878H501.722ZM501.436 94.2196C500.672 99.5688 498.648 104.519 495.351 109.082L496.972 110.253C500.452 105.439 502.604 100.185 503.416 94.5025L501.436 94.2196ZM495.35 109.083C492.089 113.611 488.026 117.194 483.156 119.84L484.11 121.598C489.247 118.807 493.537 115.022 496.973 110.252L495.35 109.083ZM483.156 119.84C478.293 122.482 473.197 123.797 467.854 123.797V125.797C473.542 125.797 478.965 124.393 484.11 121.598L483.156 119.84ZM467.854 123.797C464.141 123.797 461.021 122.984 458.449 121.403L457.402 123.108C460.345 124.916 463.844 125.797 467.854 125.797V123.797ZM458.463 121.412C455.886 119.769 453.833 117.587 452.296 114.851L450.552 115.831C452.246 118.847 454.527 121.274 457.387 123.099L458.463 121.412ZM450.435 115.195L444.939 152.545L446.918 152.837L452.414 115.487L450.435 115.195ZM445.928 151.691H431.686V153.691H445.928V151.691ZM432.676 152.83L445.145 64.183L443.165 63.9044L430.695 152.552L432.676 152.83ZM474.473 75.1588C471.173 75.1588 468.043 76.0385 465.099 77.7802L466.117 79.5016C468.767 77.9339 471.547 77.1588 474.473 77.1588V75.1588ZM465.103 77.778C462.206 79.4744 459.791 81.7898 457.86 84.7079L459.527 85.8119C461.299 83.1355 463.494 81.0381 466.113 79.5038L465.103 77.778ZM457.858 84.7108C455.961 87.5964 454.786 90.7737 454.333 94.2312L456.316 94.4909C456.73 91.3294 457.801 88.4393 459.529 85.8091L457.858 84.7108ZM454.333 94.237C454.209 95.2216 454.148 96.189 454.148 97.1387H456.148C456.148 96.276 456.204 95.3916 456.317 94.4851L454.333 94.237ZM454.148 97.1387C454.148 99.9108 454.686 102.445 455.783 104.723L457.585 103.856C456.633 101.879 456.148 99.6461 456.148 97.1387H454.148ZM455.793 104.743C456.936 106.987 458.555 108.779 460.641 110.099L461.71 108.409C459.935 107.286 458.56 105.768 457.575 103.836L455.793 104.743ZM460.653 110.107C462.763 111.398 465.215 112.027 467.972 112.027V110.027C465.528 110.027 463.449 109.473 461.698 108.401L460.653 110.107ZM467.972 112.027C471.303 112.027 474.503 111.171 477.558 109.478L476.588 107.729C473.812 109.267 470.944 110.027 467.972 110.027V112.027ZM477.562 109.476C480.648 107.748 483.223 105.42 485.278 102.501L483.643 101.35C481.758 104.026 479.407 106.15 476.584 107.731L477.562 109.476ZM485.272 102.509C487.375 99.5821 488.66 96.3738 489.116 92.8953L487.133 92.6356C486.722 95.7761 485.564 98.6746 483.648 101.342L485.272 102.509ZM489.114 92.9068C489.239 92.0354 489.302 91.1804 489.302 90.3424H487.302C487.302 91.0803 487.246 91.8406 487.134 92.624L489.114 92.9068ZM489.302 90.3424C489.302 87.5473 488.674 84.9775 487.407 82.6535L485.651 83.6112C486.747 85.6211 487.302 87.858 487.302 90.3424H489.302ZM487.407 82.6535C486.137 80.3256 484.351 78.4966 482.062 77.1827L481.067 78.9172C483.033 80.0461 484.557 81.6053 485.651 83.6112L487.407 82.6535ZM482.081 77.1939C479.824 75.8312 477.279 75.1588 474.473 75.1588V77.1588C476.946 77.1588 479.128 77.7471 481.048 78.906L482.081 77.1939ZM551.861 77.3661C549.81 75.8387 547.326 75.0997 544.467 75.0997V77.0997C546.967 77.0997 549.014 77.7396 550.666 78.9702L551.861 77.3661ZM544.467 75.0997C541.365 75.0997 538.484 75.92 535.844 77.5543L536.897 79.2548C539.221 77.816 541.738 77.0997 544.467 77.0997V75.0997ZM535.838 77.5581C533.253 79.1841 531.135 81.3902 529.484 84.1563L531.201 85.1816C532.702 82.6682 534.603 80.6981 536.903 79.251L535.838 77.5581ZM529.487 84.1506C527.839 86.8712 526.79 89.8577 526.338 93.1003L528.319 93.3761C528.734 90.3937 529.695 87.6674 531.198 85.1873L529.487 84.1506ZM526.338 93.0992L522.142 123.003L524.123 123.281L528.319 93.3772L526.338 93.0992ZM523.133 122.142H508.831V124.142H523.133V122.142ZM509.821 123.281L518.095 64.2415L516.114 63.964L507.841 123.003L509.821 123.281ZM517.105 65.1027H531.347V63.1027H517.105V65.1027ZM530.364 63.9216L529.123 70.6588L531.09 71.0211L532.331 64.2839L530.364 63.9216ZM530.851 71.5077C533.181 68.9101 535.724 66.9222 538.478 65.5266L537.573 63.7427C534.575 65.2626 531.838 67.4116 529.362 70.1722L530.851 71.5077ZM538.473 65.5291C541.251 64.1401 544.171 63.448 547.245 63.448V61.448C543.857 61.448 540.631 62.2137 537.578 63.7402L538.473 65.5291ZM547.245 63.448C550.425 63.448 552.887 63.76 554.676 64.3442L555.297 62.443C553.225 61.7664 550.526 61.448 547.245 61.448V63.448ZM554.017 63.1492L550.294 77.9238L552.233 78.4125L555.956 63.6379L554.017 63.1492ZM578.595 123.678C573.8 123.678 569.488 122.52 565.633 120.215L564.607 121.932C568.79 124.433 573.461 125.678 578.595 125.678V123.678ZM565.637 120.217C561.811 117.906 558.801 114.766 556.599 110.78L554.848 111.747C557.217 116.034 560.471 119.434 564.603 121.929L565.637 120.217ZM556.602 110.786C554.442 106.807 553.355 102.364 553.355 97.4342H551.355C551.355 102.67 552.513 107.445 554.845 111.74L556.602 110.786ZM553.355 97.4342C553.355 95.9491 553.469 94.4424 553.698 92.9138L551.721 92.6171C551.477 94.2403 551.355 95.8462 551.355 97.4342H553.355ZM553.699 92.9068C554.465 87.5478 556.415 82.6119 559.559 78.0887L557.916 76.9474C554.598 81.7223 552.53 86.9513 551.72 92.624L553.699 92.9068ZM559.559 78.0887C562.707 73.558 566.596 69.9777 571.23 67.3354L570.239 65.598C565.338 68.3927 561.229 72.1799 557.916 76.9474L559.559 78.0887ZM571.227 67.3371C575.893 64.6981 580.728 63.3889 585.745 63.3889V61.3889C580.362 61.3889 575.189 62.7982 570.242 65.5963L571.227 67.3371ZM585.745 63.3889C590.663 63.3889 595.012 64.5495 598.821 66.8499L599.855 65.1379C595.705 62.6317 590.993 61.3889 585.745 61.3889V63.3889ZM598.821 66.8499C602.643 69.1583 605.589 72.2925 607.672 76.2682L609.443 75.3402C607.192 71.0422 603.992 67.6362 599.855 65.1379L598.821 66.8499ZM607.675 76.2748C609.799 80.2571 610.867 84.6641 610.867 89.515H612.867C612.867 84.3586 611.728 79.625 609.44 75.3336L607.675 76.2748ZM610.867 89.515C610.867 92.4929 610.447 95.4955 609.603 98.5252L611.53 99.0617C612.42 95.8663 612.867 92.6833 612.867 89.515H610.867ZM610.567 97.7934H566.952V99.7934H610.567V97.7934ZM565.956 98.883C566.288 102.576 567.565 105.624 569.844 107.945L571.271 106.544C569.373 104.61 568.247 102.024 567.948 98.7039L565.956 98.883ZM569.85 107.952C572.191 110.292 575.252 111.453 578.938 111.495L578.961 109.495C575.712 109.458 573.179 108.452 571.264 106.537L569.85 107.952ZM578.934 111.495C581.788 111.537 584.498 110.863 587.049 109.483L586.097 107.724C583.841 108.945 581.468 109.532 578.964 109.495L578.934 111.495ZM587.06 109.477C589.587 108.069 591.776 106.166 593.627 103.78L592.047 102.554C590.352 104.738 588.366 106.46 586.086 107.73L587.06 109.477ZM592.567 104.129L606.869 108.148L607.41 106.223L593.108 102.204L592.567 104.129ZM606.279 106.676C603.206 111.86 599.182 115.997 594.2 119.102L595.257 120.799C600.519 117.521 604.768 113.148 607.999 107.695L606.279 106.676ZM594.204 119.099C589.229 122.161 584.031 123.678 578.595 123.678V125.678C584.426 125.678 589.984 124.044 595.252 120.802L594.204 119.099ZM598.978 87.3383C598.852 84.791 598.202 82.4849 597.011 80.4419L595.283 81.4496C596.298 83.1889 596.869 85.1773 596.98 87.4366L598.978 87.3383ZM597.015 80.4496C595.827 78.3714 594.225 76.7432 592.213 75.5872L591.216 77.3214C592.907 78.2929 594.26 79.6591 595.279 81.4419L597.015 80.4496ZM592.234 75.6001C590.253 74.3942 588.022 73.7995 585.568 73.7995V75.7995C587.685 75.7995 589.551 76.308 591.194 77.3085L592.234 75.6001ZM585.568 73.7995C582.921 73.7995 580.345 74.4313 577.852 75.6781L578.746 77.4669C580.981 76.3498 583.251 75.7995 585.568 75.7995V73.7995ZM577.846 75.6811C575.401 76.924 573.251 78.6215 571.397 80.7642L572.909 82.0729C574.601 80.1182 576.548 78.5849 578.752 77.4639L577.846 75.6811ZM571.397 80.7642C569.543 82.9057 568.176 85.2636 567.305 87.8349L569.2 88.4766C569.983 86.1624 571.216 84.0289 572.909 82.0729L571.397 80.7642ZM568.278 89.1554L598.005 88.3871L597.953 86.3878L568.227 87.1561L568.278 89.1554ZM636.938 123.149C632.195 122.843 628.02 121.584 624.389 119.39L623.355 121.102C627.289 123.479 631.781 124.82 636.809 125.145L636.938 123.149ZM624.396 119.394C620.785 117.175 618.454 114.339 617.316 110.891L615.417 111.517C616.722 115.476 619.395 118.668 623.349 121.098L624.396 119.394ZM616.71 112.143L629.002 107.652L628.316 105.773L616.023 110.265L616.71 112.143ZM627.74 107.107C628.438 108.736 629.817 110.135 631.731 111.341L632.797 109.649C631.086 108.57 630.062 107.447 629.578 106.319L627.74 107.107ZM631.752 111.354C633.768 112.555 636.015 113.15 638.469 113.15V111.15C636.353 111.15 634.463 110.641 632.776 109.636L631.752 111.354ZM638.469 113.15C641.337 113.15 643.915 112.525 646.172 111.247L645.187 109.506C643.268 110.593 641.039 111.15 638.469 111.15V113.15ZM646.177 111.244C648.535 109.891 649.968 107.948 650.333 105.438L648.354 105.15C648.089 106.974 647.079 108.42 645.182 109.509L646.177 111.244ZM650.314 105.537C650.382 105.264 650.403 104.953 650.403 104.644H648.403C648.403 104.887 648.384 105.01 648.373 105.052L650.314 105.537ZM650.403 104.644C650.403 103.824 650.22 103.058 649.817 102.386C649.414 101.714 648.824 101.193 648.1 100.807L647.159 102.572C647.617 102.816 647.914 103.102 648.102 103.415C648.29 103.728 648.403 104.125 648.403 104.644H650.403ZM648.135 100.827C646.874 100.087 645.055 99.429 642.738 98.83L642.238 100.766C644.492 101.349 646.1 101.952 647.124 102.552L648.135 100.827ZM642.721 98.8257L641.244 98.4711L640.777 100.416L642.255 100.77L642.721 98.8257ZM641.207 98.4629C635.608 97.3431 631.116 95.4058 627.684 92.6904L626.443 94.2588C630.181 97.2168 634.988 99.2588 640.815 100.424L641.207 98.4629ZM627.684 92.6904C624.333 90.0394 622.685 86.6618 622.685 82.4823H620.685C620.685 87.2858 622.623 91.2364 626.443 94.2588L627.684 92.6904ZM622.685 82.4823C622.685 81.7861 622.74 81.0457 622.853 80.2598L620.873 79.977C620.749 80.8459 620.685 81.6813 620.685 82.4823H622.685ZM622.853 80.2583C623.339 76.8174 624.68 73.8238 626.878 71.2534L625.358 69.9537C622.907 72.8204 621.411 76.17 620.873 79.9785L622.853 80.2583ZM626.882 71.248C629.103 68.614 631.849 66.5987 635.138 65.2003L634.355 63.3598C630.788 64.8769 627.782 67.0773 625.353 69.9591L626.882 71.248ZM635.143 65.1981C638.484 63.7551 641.974 63.0343 645.62 63.0343V61.0343C641.702 61.0343 637.942 61.8107 634.35 63.362L635.143 65.1981ZM645.62 63.0343C650.318 63.0343 654.441 64.0451 658.017 66.0398L658.991 64.2932C655.08 62.1116 650.614 61.0343 645.62 61.0343V63.0343ZM658.024 66.0437C661.604 68.0033 664.232 70.6593 665.946 74.0136L667.727 73.1034C665.817 69.3658 662.89 66.4272 658.984 64.2893L658.024 66.0437ZM666.382 72.6677L654.681 78.6366L655.59 80.4182L667.291 74.4493L666.382 72.6677ZM656.052 79.1278C655.279 77.3552 653.887 75.9273 651.971 74.8201L650.971 76.5519C652.6 77.4935 653.652 78.6265 654.218 79.927L656.052 79.1278ZM651.994 74.8337C650.105 73.6746 648.053 73.0904 645.857 73.0904V75.0904C647.679 75.0904 649.37 75.5699 650.948 76.5383L651.994 74.8337ZM645.857 73.0904C642.833 73.0904 640.197 73.7544 637.997 75.1344L639.06 76.8286C640.879 75.6871 643.128 75.0904 645.857 75.0904V73.0904ZM638.009 75.127C635.741 76.5054 634.391 78.5594 633.994 81.2111L635.972 81.5078C636.283 79.4316 637.297 77.9004 639.048 76.836L638.009 75.127ZM633.988 81.26L633.928 81.851L635.919 82.0499L635.978 81.4589L633.988 81.26ZM633.924 81.9504C633.924 83.49 634.627 84.7066 635.96 85.476L636.96 83.7437C636.245 83.3311 635.924 82.7748 635.924 81.9504H633.924ZM635.96 85.476C637.093 86.1293 638.743 86.7469 640.857 87.345L641.401 85.4206C639.338 84.8367 637.876 84.2724 636.96 83.7437L635.96 85.476ZM640.874 87.3499C642.365 87.7423 643.394 88.0634 643.998 88.3121L644.76 86.4628C644.025 86.16 642.887 85.8113 641.383 85.4157L640.874 87.3499ZM644.083 88.3425C656.047 92.0568 661.463 97.4679 661.463 104.29H663.463C663.463 96.0609 656.824 90.204 644.676 86.4324L644.083 88.3425ZM661.463 104.29C661.463 105.027 661.408 105.788 661.296 106.571L663.276 106.854C663.4 105.983 663.463 105.128 663.463 104.29H661.463ZM661.296 106.573C660.851 109.721 659.539 112.558 657.335 115.099L658.845 116.41C661.29 113.593 662.775 110.402 663.276 106.852L661.296 106.573ZM657.334 115.1C655.153 117.619 652.422 119.602 649.121 121.044L649.921 122.876C653.475 121.324 656.457 119.17 658.846 116.409L657.334 115.1ZM649.121 121.044C645.816 122.487 642.407 123.206 638.883 123.206V125.206C642.688 125.206 646.37 124.427 649.921 122.876L649.121 121.044ZM638.883 123.206C637.982 123.206 637.35 123.186 636.964 123.151L636.783 125.142C637.264 125.186 637.972 125.206 638.883 125.206V123.206ZM696.329 123.678C691.535 123.678 687.222 122.52 683.368 120.215L682.342 121.932C686.525 124.433 691.196 125.678 696.329 125.678V123.678ZM683.372 120.217C679.545 117.906 676.536 114.766 674.334 110.78L672.583 111.747C674.951 116.034 678.206 119.434 682.338 121.929L683.372 120.217ZM674.337 110.786C672.177 106.807 671.09 102.364 671.09 97.4342H669.09C669.09 102.67 670.248 107.445 672.58 111.74L674.337 110.786ZM671.09 97.4342C671.09 95.9491 671.204 94.4424 671.433 92.9138L669.455 92.6171C669.212 94.2403 669.09 95.8462 669.09 97.4342H671.09ZM671.434 92.9068C672.2 87.5478 674.15 82.6119 677.294 78.0887L675.651 76.9474C672.333 81.7223 670.265 86.9513 669.454 92.624L671.434 92.9068ZM677.294 78.0887C680.442 73.558 684.331 69.9777 688.965 67.3354L687.974 65.598C683.073 68.3927 678.964 72.1799 675.651 76.9474L677.294 78.0887ZM688.962 67.3371C693.628 64.6981 698.463 63.3889 703.48 63.3889V61.3889C698.096 61.3889 692.924 62.7982 687.977 65.5963L688.962 67.3371ZM703.48 63.3889C708.398 63.3889 712.747 64.5495 716.556 66.8499L717.59 65.1379C713.44 62.6317 708.727 61.3889 703.48 61.3889V63.3889ZM716.556 66.8499C720.378 69.1583 723.324 72.2925 725.406 76.2682L727.178 75.3402C724.927 71.0422 721.726 67.6362 717.59 65.1379L716.556 66.8499ZM725.41 76.2748C727.534 80.2571 728.602 84.6641 728.602 89.515H730.602C730.602 84.3586 729.463 79.625 727.175 75.3336L725.41 76.2748ZM728.602 89.515C728.602 92.4929 728.182 95.4955 727.338 98.5252L729.265 99.0617C730.155 95.8663 730.602 92.6833 730.602 89.515H728.602ZM728.302 97.7934H684.687V99.7934H728.302V97.7934ZM683.691 98.883C684.023 102.576 685.3 105.624 687.578 107.945L689.006 106.544C687.108 104.61 685.981 102.024 685.683 98.7039L683.691 98.883ZM687.585 107.952C689.926 110.292 692.987 111.453 696.673 111.495L696.695 109.495C693.447 109.458 690.914 108.452 688.999 106.537L687.585 107.952ZM696.669 111.495C699.523 111.537 702.233 110.863 704.783 109.483L703.832 107.724C701.576 108.945 699.203 109.532 696.699 109.495L696.669 111.495ZM704.795 109.477C707.321 108.069 709.511 106.166 711.362 103.78L709.782 102.554C708.087 104.738 706.101 106.46 703.821 107.73L704.795 109.477ZM710.302 104.129L724.603 108.148L725.144 106.223L710.843 102.204L710.302 104.129ZM724.014 106.676C720.941 111.86 716.917 115.997 711.934 119.102L712.992 120.799C718.253 117.521 722.503 113.148 725.734 107.695L724.014 106.676ZM711.939 119.099C706.964 122.161 701.766 123.678 696.329 123.678V125.678C702.161 125.678 707.719 124.044 712.987 120.802L711.939 119.099ZM716.712 87.3383C716.587 84.791 715.937 82.4849 714.745 80.4419L713.018 81.4496C714.032 83.1889 714.604 85.1773 714.715 87.4366L716.712 87.3383ZM714.75 80.4496C713.562 78.3714 711.96 76.7432 709.947 75.5872L708.951 77.3214C710.642 78.2929 711.995 79.6591 713.013 81.4419L714.75 80.4496ZM709.969 75.6001C707.988 74.3942 705.757 73.7995 703.303 73.7995V75.7995C705.419 75.7995 707.286 76.308 708.929 77.3085L709.969 75.6001ZM703.303 73.7995C700.656 73.7995 698.08 74.4313 695.587 75.6781L696.481 77.4669C698.715 76.3498 700.986 75.7995 703.303 75.7995V73.7995ZM695.581 75.6811C693.136 76.924 690.986 78.6215 689.132 80.7642L690.644 82.0729C692.335 80.1182 694.282 78.5849 696.487 77.4639L695.581 75.6811ZM689.132 80.7642C687.278 82.9057 685.911 85.2636 685.04 87.8349L686.934 88.4766C687.718 86.1625 688.951 84.0289 690.644 82.0729L689.132 80.7642ZM686.013 89.1554L715.739 88.3871L715.688 86.3878L685.961 87.1561L686.013 89.1554ZM777.558 123.279L781.813 92.4886L779.832 92.2148L775.577 123.005L777.558 123.279ZM781.808 92.5231C781.977 91.5505 782.059 90.4874 782.059 89.3377H780.059C780.059 90.3944 779.983 91.3406 779.837 92.1804L781.808 92.5231ZM782.059 89.3377C782.059 86.6463 781.54 84.207 780.479 82.0422L778.683 82.9225C779.592 84.7763 780.059 86.9073 780.059 89.3377H782.059ZM780.479 82.0422C779.414 79.8685 777.868 78.148 775.851 76.9034L774.801 78.6055C776.488 79.6461 777.779 81.0774 778.683 82.9225L780.479 82.0422ZM775.86 76.9085C773.866 75.6518 771.548 75.0406 768.944 75.0406V77.0406C771.225 77.0406 773.162 77.572 774.793 78.6004L775.86 76.9085ZM768.944 75.0406C765.837 75.0406 762.952 75.8835 760.311 77.5603L761.383 79.2487C763.706 77.7736 766.22 77.0406 768.944 77.0406V75.0406ZM760.321 77.5543C757.701 79.176 755.544 81.3574 753.851 84.0822L755.55 85.1375C757.088 82.6617 759.029 80.7062 761.374 79.2548L760.321 77.5543ZM753.846 84.0916C752.198 86.8101 751.149 89.776 750.697 92.9804L752.677 93.2596C753.092 90.3177 754.052 87.6103 755.556 85.1282L753.846 84.0916ZM750.697 92.9816L746.501 123.004L748.481 123.28L752.677 93.2584L750.697 92.9816ZM747.491 122.142H733.307V124.142H747.491V122.142ZM734.298 123.281L742.571 64.1823L740.591 63.905L732.317 123.003L734.298 123.281ZM741.581 65.0437H755.824V63.0437H741.581V65.0437ZM754.84 63.864L753.599 70.6603L755.566 71.0196L756.808 64.2233L754.84 63.864ZM755.332 71.5023C757.662 68.8666 760.204 66.8615 762.954 65.4675L762.05 63.6836C759.048 65.2051 756.31 67.3763 753.834 70.1776L755.332 71.5023ZM762.954 65.4675C765.69 64.0809 768.588 63.3889 771.662 63.3889V61.3889C768.275 61.3889 765.066 62.1546 762.05 63.6836L762.954 65.4675ZM771.662 63.3889C776.39 63.3889 780.413 64.4737 783.774 66.6023L784.844 64.9127C781.114 62.5499 776.705 61.3889 771.662 61.3889V63.3889ZM783.778 66.605C787.199 68.7473 789.79 71.6736 791.561 75.4057L793.368 74.548C791.436 70.479 788.59 67.2591 784.84 64.91L783.778 66.605ZM791.567 75.4167C793.383 79.1254 794.301 83.3061 794.301 87.9785H796.301C796.301 83.0375 795.329 78.5504 793.363 74.537L791.567 75.4167ZM794.301 87.9785C794.301 89.5449 794.187 91.1327 793.957 92.7422L795.937 93.025C796.18 91.325 796.301 89.6427 796.301 87.9785H794.301ZM793.956 92.7462L789.76 123.005L791.741 123.279L795.937 93.021L793.956 92.7462ZM790.751 122.142H776.567V124.142H790.751V122.142ZM828.995 79.092L822.789 123.002L824.77 123.282L830.975 79.3718L828.995 79.092ZM823.779 122.142H809.596V124.142H823.779V122.142ZM810.586 123.282L816.791 79.3718L814.811 79.092L808.606 123.002L810.586 123.282ZM815.801 78.2319H806.996V80.2319H815.801V78.2319ZM807.986 79.3681L809.936 65.1845L807.955 64.9121L806.005 79.0957L807.986 79.3681ZM808.946 66.0483H817.751V64.0483H808.946V66.0483ZM818.742 65.186L821.46 45.6245L819.479 45.3491L816.761 64.9107L818.742 65.186ZM820.47 46.4868H834.654V44.4868H820.47V46.4868ZM833.663 45.3491L830.945 64.9107L832.925 65.186L835.644 45.6244L833.663 45.3491ZM831.935 66.0483H843.518V64.0483H831.935V66.0483ZM842.528 64.9121L840.577 79.0957L842.559 79.3681L844.509 65.1845L842.528 64.9121ZM841.568 78.2319H829.985V80.2319H841.568V78.2319ZM863.866 123.149C859.123 122.843 854.948 121.584 851.317 119.39L850.283 121.102C854.217 123.479 858.71 124.82 863.738 125.145L863.866 123.149ZM851.324 119.394C847.713 117.175 845.382 114.339 844.244 110.891L842.345 111.517C843.651 115.476 846.323 118.668 850.277 121.098L851.324 119.394ZM843.638 112.143L855.93 107.652L855.244 105.773L842.952 110.265L843.638 112.143ZM854.668 107.107C855.366 108.736 856.746 110.135 858.659 111.341L859.726 109.649C858.014 108.57 856.99 107.447 856.506 106.319L854.668 107.107ZM858.68 111.354C860.696 112.555 862.944 113.15 865.398 113.15V111.15C863.281 111.15 861.392 110.641 859.704 109.636L858.68 111.354ZM865.398 113.15C868.265 113.15 870.843 112.525 873.1 111.247L872.115 109.506C870.196 110.593 867.967 111.15 865.398 111.15V113.15ZM873.105 111.244C875.463 109.891 876.896 107.948 877.261 105.438L875.282 105.15C875.017 106.974 874.007 108.42 872.11 109.509L873.105 111.244ZM877.242 105.537C877.31 105.264 877.331 104.953 877.331 104.644H875.331C875.331 104.887 875.312 105.01 875.302 105.052L877.242 105.537ZM877.331 104.644C877.331 103.824 877.148 103.058 876.745 102.386C876.342 101.714 875.752 101.193 875.028 100.807L874.087 102.572C874.545 102.816 874.842 103.102 875.03 103.415C875.218 103.728 875.331 104.125 875.331 104.644H877.331ZM875.064 100.827C873.802 100.087 871.983 99.429 869.667 98.83L869.166 100.766C871.42 101.349 873.028 101.952 874.052 102.552L875.064 100.827ZM869.65 98.8257L868.172 98.4711L867.705 100.416L869.183 100.77L869.65 98.8257ZM868.135 98.4629C862.536 97.3431 858.044 95.4058 854.612 92.6904L853.371 94.2588C857.11 97.2168 861.916 99.2588 867.743 100.424L868.135 98.4629ZM854.612 92.6904C851.261 90.0394 849.614 86.6618 849.614 82.4823H847.614C847.614 87.2858 849.551 91.2364 853.371 94.2588L854.612 92.6904ZM849.614 82.4823C849.614 81.7861 849.669 81.0457 849.781 80.2598L847.801 79.977C847.677 80.8459 847.614 81.6813 847.614 82.4823H849.614ZM849.781 80.2583C850.267 76.8174 851.608 73.8238 853.806 71.2534L852.286 69.9537C849.835 72.8204 848.339 76.17 847.801 79.9785L849.781 80.2583ZM853.811 71.248C856.031 68.614 858.777 66.5987 862.066 65.2003L861.283 63.3598C857.716 64.8769 854.71 67.0773 852.281 69.9591L853.811 71.248ZM862.071 65.1981C865.413 63.7551 868.902 63.0343 872.548 63.0343V61.0343C868.63 61.0343 864.87 61.8107 861.278 63.362L862.071 65.1981ZM872.548 63.0343C877.247 63.0343 881.369 64.0451 884.945 66.0398L885.919 64.2932C882.009 62.1116 877.542 61.0343 872.548 61.0343V63.0343ZM884.952 66.0437C888.532 68.0033 891.16 70.6593 892.874 74.0136L894.655 73.1034C892.745 69.3658 889.818 66.4272 885.912 64.2893L884.952 66.0437ZM893.31 72.6677L881.609 78.6366L882.518 80.4182L894.219 74.4493L893.31 72.6677ZM882.98 79.1278C882.207 77.3552 880.816 75.9273 878.899 74.8201L877.899 76.5519C879.529 77.4935 880.58 78.6265 881.147 79.927L882.98 79.1278ZM878.922 74.8337C877.033 73.6746 874.981 73.0904 872.785 73.0904V75.0904C874.607 75.0904 876.298 75.5699 877.876 76.5383L878.922 74.8337ZM872.785 73.0904C869.761 73.0904 867.125 73.7544 864.925 75.1344L865.988 76.8286C867.807 75.6871 870.057 75.0904 872.785 75.0904V73.0904ZM864.937 75.127C862.67 76.5054 861.32 78.5594 860.922 81.2111L862.9 81.5078C863.211 79.4316 864.225 77.9004 865.976 76.836L864.937 75.127ZM860.916 81.26L860.857 81.851L862.847 82.0499L862.906 81.4589L860.916 81.26ZM860.852 81.9504C860.852 83.49 861.555 84.7066 862.889 85.476L863.888 83.7437C863.173 83.3311 862.852 82.7748 862.852 81.9504H860.852ZM862.889 85.476C864.021 86.1293 865.671 86.7469 867.785 87.345L868.329 85.4206C866.266 84.8367 864.804 84.2724 863.888 83.7437L862.889 85.476ZM867.803 87.3499C869.294 87.7423 870.322 88.0634 870.927 88.3121L871.688 86.4628C870.953 86.16 869.815 85.8113 868.311 85.4157L867.803 87.3499ZM871.011 88.3425C882.975 92.0568 888.391 97.4679 888.391 104.29H890.391C890.391 96.0609 883.752 90.204 871.604 86.4324L871.011 88.3425ZM888.391 104.29C888.391 105.027 888.336 105.788 888.224 106.571L890.204 106.854C890.329 105.983 890.391 105.128 890.391 104.29H888.391ZM888.224 106.573C887.78 109.721 886.468 112.558 884.263 115.099L885.774 116.41C888.218 113.593 889.703 110.402 890.204 106.852L888.224 106.573ZM884.262 115.1C882.081 117.619 879.35 119.602 876.049 121.044L876.849 122.876C880.404 121.324 883.385 119.17 885.774 116.409L884.262 115.1ZM876.049 121.044C872.745 122.487 869.335 123.206 865.811 123.206V125.206C869.616 125.206 873.298 124.427 876.849 122.876L876.049 121.044ZM865.811 123.206C864.91 123.206 864.278 123.186 863.892 123.151L863.711 125.142C864.192 125.186 864.9 125.206 865.811 125.206V123.206Z" fill="white"/>
</svg>
