<svg width="1496" height="317" viewBox="0 0 1496 317" xmlns="http://www.w3.org/2000/svg">
<path d="M105.728 245L116.096 169.976C116.48 167.768 116.672 165.32 116.672 162.632C116.672 156.392 115.472 150.824 113.072 145.928C110.672 141.032 107.216 137.192 102.704 134.408C98.288 131.624 93.104 130.232 87.152 130.232C80.048 130.232 73.472 132.152 67.424 135.992C61.376 139.736 56.384 144.776 52.448 151.112C48.608 157.448 46.16 164.36 45.104 171.848L34.88 245H0.320007L20.48 101H55.184L52.16 117.56C58.016 110.936 64.448 105.848 71.456 102.296C78.464 98.744 85.904 96.968 93.776 96.968C105.68 96.968 115.952 99.704 124.592 105.176C133.328 110.648 139.952 118.136 144.464 127.64C149.072 137.048 151.376 147.608 151.376 159.32C151.376 163.256 151.088 167.24 150.512 171.272L140.288 245H105.728Z" fill="currentColor"/>
<path d="M320.452 101L211.156 317H174.004L210.436 244.856L179.188 101H216.34L233.764 197.624L283.012 101H320.452Z" fill="currentColor"/>
<path d="M459.84 245H425.136L428.304 227.144C422.544 233.96 415.92 239.288 408.432 243.128C401.04 246.872 393.072 248.744 384.528 248.744C371.76 248.744 360.24 245.816 349.968 239.96C339.696 234.008 331.632 225.944 325.776 215.768C319.92 205.592 316.992 194.264 316.992 181.784C316.992 177.656 317.232 174.056 317.712 170.984C319.632 157.544 324.672 145.16 332.832 133.832C341.088 122.504 351.312 113.528 363.504 106.904C375.792 100.28 388.608 96.968 401.952 96.968C411.264 96.968 419.28 99.08 426 103.304C432.816 107.432 438.192 113 442.128 120.008L445.44 101H480L459.84 245ZM385.68 215.48C393.36 215.48 400.56 213.512 407.28 209.576C414.096 205.544 419.712 200.12 424.128 193.304C428.64 186.488 431.472 179.048 432.624 170.984C432.912 168.68 433.056 166.424 433.056 164.216C433.056 157.784 431.76 152.024 429.168 146.936C426.576 141.752 422.88 137.72 418.08 134.84C413.376 131.864 407.856 130.376 401.52 130.376C393.84 130.376 386.448 132.392 379.344 136.424C372.24 140.36 366.288 145.736 361.488 152.552C356.688 159.368 353.76 166.808 352.704 174.872C352.416 176.888 352.272 178.856 352.272 180.776C352.272 187.304 353.712 193.208 356.592 198.488C359.472 203.768 363.456 207.944 368.544 211.016C373.632 213.992 379.344 215.48 385.68 215.48Z" fill="currentColor"/>
<path d="M554 248.744C541.904 248.744 530.96 245.816 521.168 239.96C511.472 234.104 503.84 226.136 498.272 216.056C492.8 205.976 490.064 194.744 490.064 182.36C490.064 178.616 490.352 174.824 490.928 170.984C492.848 157.544 497.744 145.16 505.616 133.832C513.488 122.504 523.232 113.528 534.848 106.904C546.56 100.28 558.752 96.968 571.424 96.968C583.616 96.968 594.56 99.896 604.256 105.752C613.952 111.608 621.536 119.624 627.008 129.8C632.48 139.88 635.216 151.16 635.216 163.64C635.216 167.864 634.976 171.608 634.496 174.872C632.576 188.216 627.68 200.552 619.808 211.88C611.936 223.208 602.144 232.184 590.432 238.808C578.816 245.432 566.672 248.744 554 248.744ZM554.864 214.184C562.16 214.184 569.072 212.216 575.6 208.28C582.224 204.344 587.744 199.064 592.16 192.44C596.576 185.816 599.312 178.664 600.368 170.984C600.656 168.968 600.8 166.952 600.8 164.936C600.8 158.792 599.504 153.176 596.912 148.088C594.32 142.904 590.672 138.872 585.968 135.992C581.36 133.016 576.176 131.528 570.416 131.528C563.216 131.528 556.304 133.544 549.68 137.576C543.152 141.512 537.68 146.792 533.264 153.416C528.848 160.04 526.112 167.192 525.056 174.872C524.768 176.984 524.624 179.096 524.624 181.208C524.624 187.448 525.92 193.112 528.512 198.2C531.104 203.192 534.704 207.128 539.312 210.008C543.92 212.792 549.104 214.184 554.864 214.184Z" fill="currentColor"/>
<path d="M696.949 101L694.213 113.24C699.109 108.44 704.005 104.984 708.901 102.872C713.893 100.76 719.269 99.704 725.029 99.704C735.109 99.704 743.989 101.816 751.669 106.04C759.445 110.264 765.589 116.072 770.101 123.464C777.397 115.592 785.317 109.688 793.861 105.752C802.501 101.72 811.477 99.704 820.789 99.704C832.117 99.704 842.149 102.344 850.885 107.624C859.621 112.808 866.389 119.912 871.189 128.936C875.989 137.864 878.389 147.752 878.389 158.6C878.389 161.48 878.149 164.84 877.669 168.68L867.013 245H832.453L843.397 166.808C843.685 164.792 843.829 162.776 843.829 160.76C843.829 152.888 841.669 146.504 837.349 141.608C833.029 136.712 827.173 134.264 819.781 134.264C813.733 134.264 807.973 135.848 802.501 139.016C797.125 142.088 792.613 146.264 788.965 151.544C785.413 156.824 783.205 162.536 782.341 168.68L771.685 245H737.125L748.213 166.808C748.501 164.792 748.645 162.92 748.645 161.192C748.645 153.224 746.389 146.744 741.877 141.752C737.365 136.76 731.413 134.264 724.021 134.264C718.165 134.264 712.549 135.896 707.173 139.16C701.797 142.424 697.285 146.744 693.637 152.12C690.085 157.496 687.877 163.256 687.013 169.4L676.501 245H641.941L662.101 101H696.949Z" fill="currentColor"/>
<path d="M938.93 83C934.034 83 929.954 81.368 926.69 78.104C923.426 74.744 921.794 70.664 921.794 65.864C921.794 62.6 922.61 59.576 924.242 56.792C925.97 53.912 928.226 51.608 931.01 49.88C933.89 48.152 936.914 47.288 940.082 47.288C944.978 47.288 949.058 48.968 952.322 52.328C955.586 55.592 957.218 59.624 957.218 64.424C957.218 67.688 956.354 70.76 954.626 73.64C952.994 76.424 950.738 78.68 947.858 80.408C945.074 82.136 942.098 83 938.93 83ZM951.602 101L931.442 245H896.882L917.042 101H951.602Z" fill="currentColor"/>
<path d="M1477.4 248.744C1472.51 248.744 1468.43 247.16 1465.16 243.992C1462 240.728 1460.41 236.648 1460.41 231.752C1460.41 230.504 1460.46 229.544 1460.56 228.872C1461.13 224.552 1463.15 220.856 1466.6 217.784C1470.16 214.616 1474.14 213.032 1478.56 213.032C1483.45 213.032 1487.53 214.664 1490.8 217.928C1494.06 221.192 1495.69 225.224 1495.69 230.024C1495.69 233.384 1494.83 236.504 1493.1 239.384C1491.47 242.264 1489.21 244.52 1486.33 246.152C1483.55 247.88 1480.57 248.744 1477.4 248.744Z" fill="currentColor"/>
<path d="M1110.62 245H1075.91L1079.08 227.288C1073.32 234.104 1066.7 239.384 1059.21 243.128C1051.82 246.872 1043.85 248.744 1035.31 248.744C1022.54 248.744 1011.02 245.816 1000.75 239.96C990.475 234.008 982.411 225.944 976.555 215.768C970.699 205.592 967.771 194.264 967.771 181.784C967.771 177.656 968.01 174.056 968.49 170.984C970.41 157.64 975.45 145.304 983.61 133.976C991.866 122.648 1002.09 113.672 1014.28 107.048C1026.57 100.424 1039.39 97.112 1052.73 97.112C1062.14 97.112 1070.2 99.176 1076.92 103.304C1083.64 107.432 1088.97 113 1092.91 120.008L1106.3 29H1141L1110.62 245ZM1036.46 215.48C1044.14 215.48 1051.34 213.512 1058.06 209.576C1064.87 205.544 1070.49 200.12 1074.91 193.304C1079.42 186.488 1082.25 179.048 1083.4 170.984C1083.69 168.68 1083.83 166.424 1083.83 164.216C1083.83 157.784 1082.54 152.024 1079.95 146.936C1077.35 141.752 1073.66 137.72 1068.86 134.84C1064.15 131.864 1058.63 130.376 1052.3 130.376C1044.62 130.376 1037.23 132.392 1030.12 136.424C1023.02 140.36 1017.07 145.784 1012.27 152.696C1007.47 159.512 1004.54 166.904 1003.48 174.872C1003.19 176.984 1003.05 179.048 1003.05 181.064C1003.05 187.592 1004.49 193.496 1007.37 198.776C1010.25 203.96 1014.23 208.04 1019.32 211.016C1024.41 213.992 1030.12 215.48 1036.46 215.48Z" stroke="currentColor" stroke-width="10"/>
<path d="M1208.75 248.744C1196.65 248.744 1185.71 245.816 1175.92 239.96C1166.22 234.104 1158.59 226.136 1153.02 216.056C1147.55 205.976 1144.81 194.744 1144.81 182.36C1144.81 178.616 1145.1 174.824 1145.68 170.984C1147.6 157.544 1152.49 145.16 1160.37 133.832C1168.24 122.504 1177.98 113.528 1189.6 106.904C1201.31 100.28 1213.5 96.968 1226.17 96.968C1238.56 96.968 1249.6 99.896 1259.29 105.752C1268.99 111.608 1276.48 119.576 1281.76 129.656C1287.13 139.736 1289.82 150.872 1289.82 163.064C1289.82 170.552 1288.77 178.088 1286.65 185.672H1180.38C1181.15 194.216 1184.08 201.08 1189.17 206.264C1194.35 211.448 1201.17 214.088 1209.61 214.184C1216.14 214.28 1222.33 212.744 1228.19 209.576C1234.05 206.312 1239.13 201.896 1243.45 196.328L1278.3 206.12C1270.62 219.08 1260.54 229.448 1248.06 237.224C1235.58 244.904 1222.48 248.744 1208.75 248.744ZM1255.98 157.88C1255.69 152.024 1254.21 146.792 1251.52 142.184C1248.83 137.48 1245.23 133.832 1240.72 131.24C1236.3 128.552 1231.31 127.208 1225.74 127.208C1219.69 127.208 1213.79 128.648 1208.03 131.528C1202.37 134.408 1197.37 138.344 1193.05 143.336C1188.73 148.328 1185.57 153.8 1183.55 159.752L1255.98 157.88Z" stroke="currentColor" stroke-width="10"/>
<path d="M1341.3 245L1309.18 100.856H1345.47L1368.37 205.112L1421.22 100.856H1458.66L1385.79 245H1341.3Z" stroke="currentColor" stroke-width="10"/>
<path d="M72.0329 83L71.0423 82.8631L70.8852 84H72.0329V83ZM76.288 52.2098L75.3027 52.0385L75.2998 52.0557L75.2974 52.0729L76.288 52.2098ZM75.0469 42.3404L74.149 42.7806L74.149 42.7806L75.0469 42.3404ZM70.7918 37.6125L70.2585 38.4585L70.2667 38.4636L70.7918 37.6125ZM56.3127 38.2626L56.8391 39.1129L56.8488 39.1068L56.3127 38.2626ZM50.1665 44.4679L49.317 43.9402L49.3113 43.9496L50.1665 44.4679ZM47.1525 52.9781L46.1623 52.8385L46.1621 52.8397L47.1525 52.9781ZM42.9565 83V84H43.8265L43.9469 83.1384L42.9565 83ZM28.7729 83L27.7826 82.8614L27.6232 84H28.7729V83ZM37.0467 23.9017V22.9017H36.177L36.0564 23.7631L37.0467 23.9017ZM51.2894 23.9017L52.2731 24.0814L52.4885 22.9017H51.2894V23.9017ZM50.0483 30.698L49.0646 30.5184L48.4197 34.0501L50.7975 31.3604L50.0483 30.698ZM57.9675 24.4336L57.5154 23.5417L57.5154 23.5417L57.9675 24.4336ZM79.7748 25.6156L79.2397 26.4604L79.2439 26.4631L79.7748 25.6156ZM87.9303 34.8349L87.0269 35.2638L87.0323 35.2748L87.9303 34.8349ZM90.4124 52.7417L89.4225 52.6003L89.4219 52.6043L90.4124 52.7417ZM86.2165 83V84H87.0874L87.207 83.1374L86.2165 83ZM156.763 83V84H157.633L157.754 83.1387L156.763 83ZM142.52 83L141.536 82.8253L141.327 84H142.52V83ZM143.821 75.6718L144.805 75.8465L145.454 72.1897L143.057 75.0264L143.821 75.6718ZM135.665 82.2317L136.117 83.1238L136.121 83.1216L135.665 82.2317ZM111.671 80.9316L111.17 81.7968L111.176 81.8003L111.671 80.9316ZM98.4332 52.6235L99.4213 52.7779L99.4231 52.7649L98.4332 52.6235ZM104.639 37.3762L103.83 36.7872L103.827 36.7917L104.639 37.3762ZM117.226 26.3248L116.752 25.4445L116.749 25.4461L117.226 26.3248ZM142.875 24.8473L142.343 25.694L142.35 25.6984L142.357 25.7027L142.875 24.8473ZM149.494 31.7027L148.622 32.1924L149.997 34.6407L150.479 31.8744L149.494 31.7027ZM150.853 23.9017V22.9017H150.013L149.868 23.7301L150.853 23.9017ZM165.037 23.9017L166.027 24.0404L166.187 22.9017H165.037V23.9017ZM135.192 68.4618L135.698 69.3247L135.701 69.3225L135.192 68.4618ZM142.107 61.7837L141.273 61.2317L141.268 61.24L142.107 61.7837ZM145.594 52.6235L146.584 52.7649L146.585 52.7562L146.586 52.7475L145.594 52.6235ZM144.175 42.7541L143.281 43.2013L143.284 43.208L144.175 42.7541ZM139.625 37.7898L139.09 38.6349L139.1 38.6412L139.11 38.6473L139.625 37.7898ZM123.727 38.4399L124.212 39.3147L124.221 39.3096L123.727 38.4399ZM116.399 45.0589L117.217 45.6347L117.217 45.6347L116.399 45.0589ZM112.794 54.2192L113.784 54.3606L113.786 54.349L112.794 54.2192ZM119.295 69.0528L118.778 69.909L118.79 69.916L119.295 69.0528ZM181.933 80.9316L181.416 81.7876L181.419 81.7898L181.933 80.9316ZM172.536 71.1213L171.657 71.5984L171.661 71.6048L172.536 71.1213ZM169.522 52.6235L170.511 52.7718L170.512 52.7649L169.522 52.6235ZM175.55 37.3762L176.371 37.9468L176.371 37.9468L175.55 37.3762ZM187.547 26.3248L187.055 25.4543L187.052 25.4561L187.547 26.3248ZM216.032 25.852L216.549 24.996L216.549 24.996L216.032 25.852ZM225.37 35.7214L224.489 36.195L224.491 36.1985L225.37 35.7214ZM228.443 54.2192L227.454 54.0737L227.453 54.0767L228.443 54.2192ZM222.415 69.4074L221.594 68.8368L221.594 68.8368L222.415 69.4074ZM210.359 80.4588L209.867 79.5884L209.863 79.5901L210.359 80.4588ZM204.272 67.93L203.761 67.0703L203.755 67.0736L204.272 67.93ZM214.437 52.6235L213.447 52.4821L213.446 52.4873L214.437 52.6235ZM213.018 43.2269L212.124 43.6741L212.127 43.6808L213.018 43.2269ZM208.527 38.2626L207.984 39.1027L207.994 39.1092L208.005 39.1155L208.527 38.2626ZM193.634 38.9127L194.15 39.7691L194.154 39.7669L193.634 38.9127ZM183.528 54.2192L182.538 54.0829L182.537 54.084L183.528 54.2192ZM184.947 63.7931L184.056 64.247L184.059 64.2539L184.947 63.7931ZM189.379 68.6391L188.849 69.4871L188.855 69.4911L188.862 69.4951L189.379 68.6391ZM254.074 23.9017L255.05 24.1199L255.322 22.9017H254.074V23.9017ZM252.951 28.9251L251.975 28.707L251.238 32.0051L253.651 29.6392L252.951 28.9251ZM258.979 24.67L258.59 23.749L258.583 23.7518L258.979 24.67ZM276.531 25.9702L276.049 26.8464L276.054 26.8489L276.531 25.9702ZM284.096 33.1211L283.242 33.6421L283.931 34.7702L284.829 33.8008L284.096 33.1211ZM293.847 25.852L294.266 26.7603L294.27 26.7582L293.847 25.852ZM317.25 26.6203L316.733 27.4761L316.74 27.4803L317.25 26.6203ZM325.583 35.3668L324.7 35.8364L324.702 35.8403L325.583 35.3668ZM328.242 51.6779L329.233 51.8162L329.234 51.8091L329.235 51.802L328.242 51.6779ZM323.869 83V84H324.739L324.859 83.1383L323.869 83ZM309.685 83L308.695 82.8614L308.536 84H309.685V83ZM314.177 50.9097L313.187 50.7682L313.187 50.771L314.177 50.9097ZM311.695 40.5675L312.445 39.9058L312.445 39.9058L311.695 40.5675ZM297.393 39.5037L297.889 40.3719L297.894 40.3691L297.393 39.5037ZM291.838 44.6452L291.015 44.0768L291.008 44.0871L291.838 44.6452ZM289.119 51.6779L288.129 51.5387L288.129 51.5397L289.119 51.6779ZM284.746 83V84H285.616L285.736 83.1383L284.746 83ZM270.562 83L269.572 82.8596L269.411 84H270.562V83ZM275.113 50.9097L274.123 50.7682L274.123 50.7693L275.113 50.9097ZM272.513 40.6266L271.771 41.2971L271.771 41.2971L272.513 40.6266ZM258.27 39.5628L258.789 40.4176L258.789 40.4176L258.27 39.5628ZM252.715 44.8816L251.887 44.3201L251.88 44.3304L252.715 44.8816ZM249.996 51.9734L249.006 51.8342L249.006 51.8357L249.996 51.9734ZM245.682 83V84H246.553L246.673 83.1377L245.682 83ZM231.498 83L230.508 82.8614L230.349 84H231.498V83ZM239.772 23.9017V22.9017H238.902L238.782 23.7631L239.772 23.9017ZM348.361 14.5051L347.643 15.2019L347.648 15.2071L347.654 15.2122L348.361 14.5051ZM347.356 5.75858L346.498 5.24406L346.493 5.25286L347.356 5.75858ZM350.134 2.92186L349.619 2.06437L349.613 2.06825L349.606 2.07222L350.134 2.92186ZM358.88 3.92653L358.163 4.62332L358.168 4.62851L358.173 4.63364L358.88 3.92653ZM359.826 12.6731L358.968 12.1586L358.963 12.1674L359.826 12.6731ZM357.048 15.4507L356.534 14.5932L356.527 14.5971L356.521 14.6011L357.048 15.4507ZM358.585 23.9017L359.575 24.0404L359.734 22.9017H358.585V23.9017ZM350.311 83V84H351.181L351.301 83.1387L350.311 83ZM336.127 83L335.137 82.8614L334.978 84H336.127V83ZM344.401 23.9017V22.9017H343.531L343.411 23.7631L344.401 23.9017ZM401.475 23.9017V22.9017H400.606L400.485 23.7625L401.475 23.9017ZM415.718 23.9017L416.701 24.0841L416.92 22.9017H415.718V23.9017ZM414.359 31.2299L413.375 31.0476L412.699 34.6967L415.117 31.8816L414.359 31.2299ZM422.455 24.7291L422.912 25.6188L422.916 25.6165L422.455 24.7291ZM446.567 26.0293L446.066 26.8945L446.072 26.898L446.567 26.0293ZM456.437 35.8987L455.566 36.3913L455.57 36.3975L456.437 35.8987ZM459.746 54.2192L460.736 54.3606L460.738 54.349L460.739 54.3374L459.746 54.2192ZM453.482 69.5256L452.671 68.9399L452.67 68.9411L453.482 69.5256ZM415.245 82.1135L414.707 82.9567L414.715 82.9612L414.722 82.9656L415.245 82.1135ZM408.744 75.199L409.616 74.7093L408.182 72.1549L407.755 75.0535L408.744 75.199ZM403.248 112.549V113.549H404.112L404.238 112.695L403.248 112.549ZM389.006 112.549L388.015 112.41L387.855 113.549H389.006V112.549ZM422.928 38.499L423.433 39.3619L423.437 39.3597L422.928 38.499ZM416.013 45.118L415.18 44.566L415.178 44.5688L416.013 45.118ZM412.645 54.2192L411.653 54.0893L411.653 54.0951L412.645 54.2192ZM414.004 64.1477L413.103 64.5815L413.108 64.5916L413.113 64.6016L414.004 64.1477ZM418.496 69.1119L417.961 69.957L417.967 69.9609L417.973 69.9648L418.496 69.1119ZM434.393 68.4618L434.878 69.3366L434.882 69.3343L434.393 68.4618ZM441.78 61.7837L440.968 61.2003L440.963 61.208L441.78 61.7837ZM445.444 52.6235L444.454 52.4821L444.453 52.4937L445.444 52.6235ZM443.849 42.9905L444.727 42.5116L444.727 42.5116L443.849 42.9905ZM438.884 37.908L438.368 38.7641L438.377 38.7698L438.387 38.7753L438.884 37.908ZM508.583 38.0262L507.986 38.8283L509.187 39.7227L509.553 38.2706L508.583 38.0262ZM493.691 38.2626L493.164 37.4123L493.158 37.4162L493.691 38.2626ZM487.663 44.527L488.518 45.0454L488.521 45.0397L487.663 44.527ZM484.649 53.0963L485.639 53.2352L485.639 53.2342L484.649 53.0963ZM480.453 83V84H481.322L481.443 83.139L480.453 83ZM466.151 83L465.161 82.8612L465.001 84H466.151V83ZM474.425 23.9608V22.9608H473.555L473.434 23.8221L474.425 23.9608ZM488.667 23.9608L489.651 24.142L489.868 22.9608H488.667V23.9608ZM487.426 30.698L486.443 30.5169L485.8 34.009L488.171 31.3658L487.426 30.698ZM495.345 24.4927L494.898 23.5983L494.893 23.6008L495.345 24.4927ZM512.307 23.2517L513.276 23.496L513.504 22.5908L512.617 22.3011L512.307 23.2517ZM522.44 80.9316L521.923 81.7876L521.927 81.7898L522.44 80.9316ZM513.044 71.1213L512.165 71.5984L512.168 71.6048L513.044 71.1213ZM510.03 52.6235L511.019 52.7718L511.019 52.7649L510.03 52.6235ZM516.058 37.3762L516.879 37.9468L516.879 37.9468L516.058 37.3762ZM528.055 26.3248L527.562 25.4543L527.559 25.4561L528.055 26.3248ZM556.658 25.852L557.175 24.996L557.175 24.996L556.658 25.852ZM565.877 35.6623L564.992 36.1263L564.995 36.1329L565.877 35.6623ZM567.887 58.6515V59.6515H568.646L568.85 58.9198L567.887 58.6515ZM524.272 58.6515V57.6515H523.178L523.276 58.7411L524.272 58.6515ZM527.877 67.1026L527.164 67.8031L527.17 67.8097L527.877 67.1026ZM536.269 70.353L536.284 69.3531L536.281 69.353L536.269 70.353ZM543.893 68.4618L544.369 69.3415L544.38 69.3353L543.893 68.4618ZM550.157 63.0248L550.428 62.0621L549.78 61.88L549.367 62.4118L550.157 63.0248ZM564.459 67.0435L565.319 67.5533L565.983 66.433L564.73 66.0808L564.459 67.0435ZM552.048 79.8087L552.573 80.6604L552.577 80.6574L552.048 79.8087ZM555.299 47.2456L555.325 48.2452L556.348 48.2188L556.298 47.1964L555.299 47.2456ZM553.467 40.8038L552.599 41.3L552.603 41.3077L553.467 40.8038ZM549.034 36.3124L548.514 37.1666L548.525 37.1732L548.536 37.1795L549.034 36.3124ZM535.619 36.4306L535.172 35.5361L535.166 35.5392L535.619 36.4306ZM529.473 41.2766L530.229 41.931L530.229 41.931L529.473 41.2766ZM525.572 48.0138L524.625 47.693L524.165 49.0505L525.598 49.0135L525.572 48.0138ZM594.194 84.0047L594.284 83.0088L594.271 83.0076L594.258 83.0068L594.194 84.0047ZM581.192 80.1042L580.669 80.9562L580.675 80.9601L581.192 80.1042ZM573.687 71.0622L573.343 70.1229L572.434 70.4554L572.737 71.3754L573.687 71.0622ZM585.979 66.5707L586.898 66.1768L586.525 65.3065L585.636 65.6314L585.979 66.5707ZM589.584 70.353L589.051 71.1989L589.061 71.2056L589.072 71.2121L589.584 70.353ZM602.999 70.2348L603.492 71.1051L603.497 71.102L602.999 70.2348ZM606.664 65.1523L605.693 64.9098L605.681 64.9586L605.674 65.0084L606.664 65.1523ZM604.95 61.5473L604.444 62.41L604.461 62.4202L604.479 62.4297L604.95 61.5473ZM599.808 59.6562L600.058 58.6881L600.05 58.6859L600.041 58.6838L599.808 59.6562ZM598.331 59.3016L598.564 58.3292L598.545 58.3248L598.527 58.321L598.331 59.3016ZM584.383 53.3327L585.004 52.5485L585.004 52.5485L584.383 53.3327ZM579.183 39.9765L580.173 40.1179L580.173 40.1164L579.183 39.9765ZM583.438 30.4617L584.198 31.1116L584.202 31.1061L583.438 30.4617ZM592.066 24.1381L592.458 25.0584L592.463 25.0562L592.066 24.1381ZM615.824 25.0246L615.337 25.8979L615.344 25.9018L615.824 25.0246ZM624.157 33.4166L624.611 34.3074L625.503 33.8526L625.047 32.9615L624.157 33.4166ZM612.455 39.3855L611.538 39.7851L611.963 40.7591L612.91 40.2763L612.455 39.3855ZM608.791 35.5441L608.268 36.3964L608.279 36.4033L608.291 36.41L608.791 35.5441ZM595.849 35.8396L596.368 36.6941L596.374 36.6904L596.38 36.6867L595.849 35.8396ZM592.303 41.2175L591.314 41.0692L591.31 41.0936L591.308 41.1181L592.303 41.2175ZM592.244 41.8085L591.248 41.709L591.244 41.7587V41.8085H592.244ZM593.78 44.4679L593.28 45.3341L593.28 45.3341L593.78 44.4679ZM598.449 46.2409L598.177 47.2031L598.185 47.2056L598.194 47.208L598.449 46.2409ZM601.699 47.2456L601.318 48.1702L601.36 48.1873L601.403 48.2006L601.699 47.2456ZM619.606 66.5707L618.616 66.4293L618.616 66.4309L619.606 66.5707ZM615.41 75.6127L614.655 74.9574L614.654 74.9582L615.41 75.6127ZM640.175 80.9316L639.658 81.7876L639.662 81.7898L640.175 80.9316ZM630.778 71.1213L629.9 71.5984L629.903 71.6048L630.778 71.1213ZM627.764 52.6235L628.753 52.7718L628.754 52.7649L627.764 52.6235ZM633.792 37.3762L634.614 37.9468L634.614 37.9468L633.792 37.3762ZM645.789 26.3248L645.297 25.4543L645.294 25.4561L645.789 26.3248ZM674.393 25.852L674.91 24.996L674.91 24.996L674.393 25.852ZM683.612 35.6623L682.726 36.1263L682.73 36.1329L683.612 35.6623ZM685.622 58.6515V59.6515H686.381L686.585 58.9198L685.622 58.6515ZM642.007 58.6515V57.6515H640.913L641.011 58.7411L642.007 58.6515ZM645.612 67.1026L644.898 67.8031L644.905 67.8097L645.612 67.1026ZM654.004 70.353L654.019 69.3531L654.015 69.353L654.004 70.353ZM661.628 68.4618L662.104 69.3415L662.115 69.3353L661.628 68.4618ZM667.892 63.0248L668.163 62.0621L667.515 61.88L667.102 62.4118L667.892 63.0248ZM682.194 67.0435L683.054 67.5533L683.718 66.433L682.464 66.0808L682.194 67.0435ZM669.783 79.8087L670.307 80.6604L670.312 80.6574L669.783 79.8087ZM673.034 47.2456L673.059 48.2452L674.083 48.2188L674.032 47.1964L673.034 47.2456ZM671.202 40.8038L670.333 41.3L670.338 41.3077L671.202 40.8038ZM666.769 36.3124L666.249 37.1666L666.26 37.1732L666.271 37.1795L666.769 36.3124ZM653.354 36.4306L652.907 35.5361L652.901 35.5392L653.354 36.4306ZM647.208 41.2766L647.964 41.931L647.964 41.931L647.208 41.2766ZM643.307 48.0138L642.36 47.693L641.9 49.0505L643.333 49.0135L643.307 48.0138ZM733.887 83L732.897 82.8631L732.74 84H733.887V83ZM738.142 52.2098L737.157 52.0385L737.154 52.0557L737.152 52.0729L738.142 52.2098ZM736.901 42.3404L736.003 42.7806L736.003 42.7806L736.901 42.3404ZM732.646 37.6125L732.113 38.4585L732.121 38.4636L732.646 37.6125ZM718.167 38.2626L718.694 39.1129L718.703 39.1068L718.167 38.2626ZM712.021 44.4679L711.171 43.9402L711.166 43.9496L712.021 44.4679ZM709.007 52.9781L708.017 52.8385L708.017 52.8397L709.007 52.9781ZM704.811 83V84H705.681L705.801 83.1384L704.811 83ZM690.627 83L689.637 82.8614L689.478 84H690.627V83ZM698.901 23.9017V22.9017H698.031L697.911 23.7631L698.901 23.9017ZM713.144 23.9017L714.128 24.0814L714.343 22.9017H713.144V23.9017ZM711.903 30.698L710.919 30.5184L710.274 34.0501L712.652 31.3604L711.903 30.698ZM719.822 24.4336L719.37 23.5417L719.37 23.5417L719.822 24.4336ZM741.629 25.6156L741.094 26.4604L741.098 26.4631L741.629 25.6156ZM749.785 34.8349L748.881 35.2638L748.887 35.2748L749.785 34.8349ZM752.267 52.7417L751.277 52.6003L751.276 52.6043L752.267 52.7417ZM748.071 83V84H748.942L749.061 83.1374L748.071 83ZM787.305 39.09V38.09H786.436L786.315 38.9501L787.305 39.09ZM781.099 83V84H781.968L782.09 83.1399L781.099 83ZM766.916 83L765.926 82.8601L765.765 84H766.916V83ZM773.121 39.09L774.111 39.2299L774.272 38.09H773.121V39.09ZM764.316 39.09L763.325 38.9538L763.169 40.09H764.316V39.09ZM766.266 24.9064V23.9064H765.394L765.275 24.7702L766.266 24.9064ZM775.071 24.9064V25.9064H775.942L776.062 25.0441L775.071 24.9064ZM777.79 5.34489V4.34489H776.919L776.799 5.20724L777.79 5.34489ZM791.974 5.34489L792.964 5.48254L793.122 4.34489H791.974V5.34489ZM789.255 24.9064L788.265 24.7688L788.106 25.9064H789.255V24.9064ZM800.838 24.9064L801.829 25.0426L801.985 23.9064H800.838V24.9064ZM798.888 39.09V40.09H799.76L799.879 39.2262L798.888 39.09ZM821.122 84.0047L821.212 83.0088L821.199 83.0076L821.186 83.0068L821.122 84.0047ZM808.12 80.1042L807.597 80.9562L807.603 80.9601L808.12 80.1042ZM800.615 71.0622L800.272 70.1229L799.362 70.4554L799.665 71.3754L800.615 71.0622ZM812.907 66.5707L813.826 66.1768L813.453 65.3065L812.564 65.6314L812.907 66.5707ZM816.512 70.353L815.979 71.1989L815.99 71.2056L816 71.2121L816.512 70.353ZM829.928 70.2348L830.42 71.1051L830.425 71.102L829.928 70.2348ZM833.592 65.1523L832.622 64.9098L832.609 64.9586L832.602 65.0084L833.592 65.1523ZM831.878 61.5473L831.372 62.41L831.389 62.4202L831.407 62.4297L831.878 61.5473ZM826.736 59.6562L826.987 58.6881L826.978 58.6859L826.97 58.6838L826.736 59.6562ZM825.259 59.3016L825.492 58.3292L825.474 58.3248L825.455 58.321L825.259 59.3016ZM811.312 53.3327L811.932 52.5485L811.932 52.5485L811.312 53.3327ZM806.111 39.9765L807.101 40.1179L807.101 40.1164L806.111 39.9765ZM810.366 30.4617L811.126 31.1116L811.131 31.1061L810.366 30.4617ZM818.994 24.1381L819.386 25.0584L819.391 25.0562L818.994 24.1381ZM842.752 25.0246L842.265 25.8979L842.272 25.9018L842.752 25.0246ZM851.085 33.4166L851.539 34.3074L852.431 33.8526L851.975 32.9615L851.085 33.4166ZM839.383 39.3855L838.467 39.7851L838.891 40.7591L839.838 40.2763L839.383 39.3855ZM835.719 35.5441L835.196 36.3964L835.207 36.4033L835.219 36.41L835.719 35.5441ZM822.777 35.8396L823.296 36.6941L823.302 36.6904L823.308 36.6867L822.777 35.8396ZM819.231 41.2175L818.242 41.0692L818.238 41.0936L818.236 41.1181L819.231 41.2175ZM819.172 41.8085L818.177 41.709L818.172 41.7587V41.8085H819.172ZM820.708 44.4679L820.209 45.3341L820.209 45.3341L820.708 44.4679ZM825.377 46.2409L825.105 47.2031L825.114 47.2056L825.123 47.208L825.377 46.2409ZM828.627 47.2456L828.247 48.1702L828.288 48.1873L828.331 48.2006L828.627 47.2456ZM846.534 66.5707L845.544 66.4293L845.544 66.4309L846.534 66.5707ZM842.338 75.6127L841.583 74.9574L841.582 74.9582L842.338 75.6127ZM73.0235 83.1369L77.2785 52.3467L75.2974 52.0729L71.0423 82.8631L73.0235 83.1369ZM77.2732 52.3812C77.4423 51.4086 77.5244 50.3455 77.5244 49.1958H75.5244C75.5244 50.2525 75.4488 51.1987 75.3027 52.0385L77.2732 52.3812ZM77.5244 49.1958C77.5244 46.5044 77.006 44.0651 75.9448 41.9002L74.149 42.7806C75.0577 44.6343 75.5244 46.7654 75.5244 49.1958H77.5244ZM75.9448 41.9002C74.8793 39.7266 73.334 38.0061 71.3169 36.7615L70.2667 38.4636C71.9532 39.5042 73.2445 40.9355 74.149 42.7806L75.9448 41.9002ZM71.3251 36.7666C69.3316 35.5099 67.0136 34.8987 64.4092 34.8987V36.8987C66.6903 36.8987 68.6273 37.4301 70.2585 38.4585L71.3251 36.7666ZM64.4092 34.8987C61.3022 34.8987 58.4177 35.7416 55.7767 37.4184L56.8488 39.1068C59.1721 37.6317 61.6852 36.8987 64.4092 36.8987V34.8987ZM55.7864 37.4124C53.1667 39.0341 51.0097 41.2155 49.3171 43.9403L51.016 44.9956C52.554 42.5198 54.4945 40.5643 56.8391 39.1129L55.7864 37.4124ZM49.3113 43.9496C47.6637 46.6682 46.6142 49.6341 46.1623 52.8385L48.1427 53.1177C48.5576 50.1758 49.5174 47.4684 51.0217 44.9862L49.3113 43.9496ZM46.1621 52.8397L41.9662 82.8616L43.9469 83.1384L48.1429 53.1165L46.1621 52.8397ZM42.9565 82H28.7729V84H42.9565V82ZM29.7633 83.1387L38.037 24.0404L36.0564 23.7631L27.7826 82.8614L29.7633 83.1387ZM37.0467 24.9017H51.2894V22.9017H37.0467V24.9017ZM50.3057 23.7221L49.0646 30.5184L51.0321 30.8777L52.2731 24.0814L50.3057 23.7221ZM50.7975 31.3604C53.1276 28.7247 55.6694 26.7195 58.4196 25.3256L57.5154 23.5417C54.5134 25.0632 51.7757 27.2344 49.2991 30.0357L50.7975 31.3604ZM58.4196 25.3256C61.1553 23.939 64.0538 23.247 67.1277 23.247V21.247C63.7402 21.247 60.5319 22.0127 57.5154 23.5417L58.4196 25.3256ZM67.1277 23.247C71.8554 23.247 75.8787 24.3317 79.2397 26.4604L80.3098 24.7708C76.5791 22.408 72.171 21.247 67.1277 21.247V23.247ZM79.2439 26.4631C82.6642 28.6054 85.2552 31.5317 87.027 35.2638L88.8337 34.4061C86.902 30.3371 84.0559 27.1172 80.3056 24.7681L79.2439 26.4631ZM87.0323 35.2748C88.8488 38.9835 89.767 43.1642 89.767 47.8365H91.767C91.767 42.8956 90.7941 38.4085 88.8284 34.3951L87.0323 35.2748ZM89.767 47.8365C89.767 49.403 89.6524 50.9907 89.4225 52.6003L91.4024 52.8831C91.6452 51.1831 91.767 49.5008 91.767 47.8365H89.767ZM89.4219 52.6043L85.2259 82.8627L87.207 83.1374L91.403 52.8791L89.4219 52.6043ZM86.2165 82H72.0329V84H86.2165V82ZM156.763 82H142.52V84H156.763V82ZM143.505 83.1747L144.805 75.8465L142.836 75.4971L141.536 82.8253L143.505 83.1747ZM143.057 75.0264C140.773 77.7289 138.157 79.8299 135.209 81.3419L136.121 83.1216C139.319 81.4817 142.14 79.2094 144.584 76.3173L143.057 75.0264ZM135.213 81.3396C132.324 82.803 129.209 83.5366 125.855 83.5366V85.5366C129.513 85.5366 132.939 84.7336 136.117 83.1238L135.213 81.3396ZM125.855 83.5366C120.774 83.5366 116.219 82.3733 112.166 80.0628L111.176 81.8003C115.554 84.2965 120.455 85.5366 125.855 85.5366V83.5366ZM112.173 80.0663C108.107 77.7105 104.924 74.5267 102.609 70.5043L100.876 71.5018C103.368 75.832 106.804 79.2671 111.17 81.7968L112.173 80.0663ZM102.609 70.5043C100.299 66.4893 99.1377 62.0141 99.1377 57.0559H97.1377C97.1377 62.3414 98.3798 67.1642 100.876 71.5018L102.609 70.5043ZM99.1377 57.0559C99.1377 55.3978 99.2343 53.9741 99.4212 52.7779L97.4452 52.4691C97.2381 53.7944 97.1377 55.3257 97.1377 57.0559H99.1377ZM99.4231 52.7649C100.188 47.4137 102.193 42.4825 105.45 37.9606L103.827 36.7917C100.387 41.568 98.2547 46.8017 97.4432 52.4821L99.4231 52.7649ZM105.447 37.9651C108.748 33.4347 112.832 29.8504 117.704 27.2035L116.749 25.4461C111.614 28.2362 107.305 32.0195 103.83 36.7872L105.447 37.9651ZM117.701 27.205C122.605 24.5614 127.703 23.247 133.006 23.247V21.247C127.356 21.247 121.934 22.6512 116.752 25.4445L117.701 27.205ZM133.006 23.247C136.672 23.247 139.77 24.0769 142.343 25.694L143.407 24.0007C140.464 22.1507 136.983 21.247 133.006 21.247V23.247ZM142.357 25.7027C145.006 27.3067 147.091 29.4653 148.622 32.1924L150.366 31.213C148.667 28.1879 146.339 25.7763 143.393 23.992L142.357 25.7027ZM150.479 31.8744L151.839 24.0734L149.868 23.7301L148.509 31.5311L150.479 31.8744ZM150.853 24.9017H165.037V22.9017H150.853V24.9017ZM164.047 23.7631L155.773 82.8614L157.754 83.1387L166.027 24.0404L164.047 23.7631ZM126.328 71.8849C129.66 71.8849 132.789 71.0285 135.698 69.3247L134.687 67.599C132.08 69.1258 129.299 69.8849 126.328 69.8849V71.8849ZM135.701 69.3225C138.635 67.587 141.052 65.2511 142.946 62.3275L141.268 61.24C139.537 63.911 137.344 66.0272 134.683 67.6012L135.701 69.3225ZM142.941 62.3357C144.874 59.4153 146.09 56.2217 146.584 52.7649L144.604 52.4821C144.152 55.6443 143.043 58.5576 141.273 61.2318L142.941 62.3357ZM146.586 52.7475C146.709 51.7629 146.771 50.7956 146.771 49.8459H144.771C144.771 50.7085 144.715 51.5929 144.601 52.4995L146.586 52.7475ZM146.771 49.8459C146.771 47.0685 146.21 44.5458 145.066 42.3002L143.284 43.208C144.268 45.1386 144.771 47.3438 144.771 49.8459H146.771ZM145.07 42.3069C143.924 40.0156 142.278 38.2157 140.139 36.9323L139.11 38.6473C140.911 39.7279 142.299 41.2375 143.281 43.2013L145.07 42.3069ZM140.159 36.9448C138.048 35.6087 135.591 34.9578 132.828 34.9578V36.9578C135.266 36.9578 137.341 37.5282 139.09 38.6349L140.159 36.9448ZM132.828 34.9578C129.492 34.9578 126.29 35.8357 123.234 37.5702L124.221 39.3096C126.996 37.7346 129.861 36.9578 132.828 36.9578V34.9578ZM123.243 37.5652C120.191 39.2557 117.636 41.5657 115.581 44.4831L117.217 45.6347C119.102 42.9575 121.432 40.8548 124.212 39.3146L123.243 37.5652ZM115.581 44.4831C113.521 47.4094 112.257 50.6152 111.803 54.0893L113.786 54.349C114.197 51.2042 115.338 48.3031 117.217 45.6347L115.581 44.4831ZM111.804 54.0777C111.68 54.9491 111.617 55.8041 111.617 56.6422H113.617C113.617 55.9043 113.672 55.1439 113.784 54.3606L111.804 54.0777ZM111.617 56.6422C111.617 59.474 112.243 62.0639 113.512 64.3901L115.268 63.4324C114.173 61.4247 113.617 59.1687 113.617 56.6422H111.617ZM113.512 64.3901C114.778 66.7106 116.536 68.5554 118.778 69.9089L119.812 68.1968C117.877 67.0287 116.366 65.4458 115.268 63.4324L113.512 64.3901ZM118.79 69.916C121.043 71.2337 123.564 71.8849 126.328 71.8849V69.8849C123.891 69.8849 121.723 69.3147 119.8 68.1896L118.79 69.916ZM195.407 83.5366C190.612 83.5366 186.3 82.3783 182.446 80.0733L181.419 81.7898C185.603 84.2916 190.273 85.5366 195.407 85.5366V83.5366ZM182.45 80.0756C178.623 77.7644 175.613 74.6239 173.411 70.6377L171.661 71.6048C174.029 75.8924 177.284 79.2921 181.416 81.7876L182.45 80.0756ZM173.415 70.6442C171.255 66.6653 170.167 62.2217 170.167 57.2923H168.167C168.167 62.5277 169.326 67.3035 171.657 71.5984L173.415 70.6442ZM170.167 57.2923C170.167 55.8072 170.282 54.3005 170.511 52.7718L168.533 52.4752C168.29 54.0984 168.167 55.7043 168.167 57.2923H170.167ZM170.512 52.7649C171.277 47.4059 173.228 42.47 176.371 37.9468L174.729 36.8055C171.411 41.5804 169.342 46.8094 168.532 52.4821L170.512 52.7649ZM176.371 37.9468C179.52 33.4161 183.409 29.8358 188.042 27.1935L187.052 25.4561C182.151 28.2508 178.042 32.038 174.729 36.8055L176.371 37.9468ZM188.039 27.1952C192.705 24.5562 197.54 23.247 202.558 23.247V21.247C197.174 21.247 192.002 22.6563 187.055 25.4543L188.039 27.1952ZM202.558 23.247C207.394 23.247 211.704 24.4061 215.515 26.708L216.549 24.996C212.402 22.4913 207.729 21.247 202.558 21.247V23.247ZM215.515 26.708C219.338 29.0168 222.326 32.1731 224.489 36.195L226.251 35.2478C223.922 30.9171 220.685 27.4938 216.549 24.996L215.515 26.708ZM224.491 36.1985C226.65 40.1762 227.738 44.6392 227.738 49.6095H229.738C229.738 44.3361 228.581 39.5403 226.249 35.2443L224.491 36.1985ZM227.738 49.6095C227.738 51.3071 227.642 52.7934 227.454 54.0737L229.432 54.3647C229.638 52.9658 229.738 51.379 229.738 49.6095H227.738ZM227.453 54.0767C226.688 59.3956 224.738 64.3123 221.594 68.8368L223.236 69.9781C226.553 65.2044 228.622 59.9956 229.433 54.3616L227.453 54.0767ZM221.594 68.8368C218.446 73.3657 214.539 76.9457 209.867 79.5884L210.851 81.3292C215.792 78.5348 219.922 74.7473 223.236 69.9781L221.594 68.8368ZM209.863 79.5901C205.238 82.2275 200.424 83.5366 195.407 83.5366V85.5366C200.791 85.5366 205.945 84.1271 210.854 81.3275L209.863 79.5901ZM195.762 71.353C198.946 71.353 201.96 70.4912 204.788 68.7863L203.755 67.0736C201.225 68.5994 198.566 69.353 195.762 69.353V71.353ZM204.783 68.7896C207.634 67.0953 210.008 64.8225 211.9 61.9838L210.236 60.8744C208.504 63.4728 206.347 65.5339 203.761 67.0703L204.783 68.7896ZM211.9 61.9838C213.794 59.1431 214.973 56.0654 215.427 52.7597L213.446 52.4873C213.034 55.4854 211.967 58.2781 210.236 60.8744L211.9 61.9838ZM215.427 52.7649C215.551 51.8912 215.614 51.0165 215.614 50.1414H213.614C213.614 50.921 213.558 51.7011 213.447 52.4821L215.427 52.7649ZM215.614 50.1414C215.614 47.4743 215.05 45.0122 213.909 42.773L212.127 43.6808C213.114 45.6178 213.614 47.7654 213.614 50.1414H215.614ZM213.913 42.7797C212.77 40.4937 211.147 38.6945 209.049 37.4098L208.005 39.1155C209.767 40.1947 211.139 41.705 212.124 43.6741L213.913 42.7797ZM209.069 37.4226C207.008 36.0914 204.69 35.4306 202.144 35.4306V37.4306C204.326 37.4306 206.263 37.9911 207.984 39.1027L209.069 37.4226ZM202.144 35.4306C198.992 35.4306 195.977 36.316 193.114 38.0585L194.154 39.7669C196.728 38.1999 199.387 37.4306 202.144 37.4306V35.4306ZM193.118 38.0563C190.307 39.7511 187.955 42.0233 186.065 44.8588L187.729 45.9682C189.463 43.3667 191.603 41.305 194.15 39.7691L193.118 38.0563ZM186.065 44.8588C184.171 47.6996 182.992 50.7772 182.538 54.0829L184.519 54.3554C184.931 51.3573 185.998 48.5645 187.729 45.9682L186.065 44.8588ZM182.537 54.084C182.413 54.9952 182.351 55.9071 182.351 56.8195H184.351C184.351 55.9983 184.407 55.1767 184.519 54.3543L182.537 54.084ZM182.351 56.8195C182.351 59.5233 182.914 62.0056 184.056 64.247L185.838 63.3391C184.852 61.4043 184.351 59.2375 184.351 56.8195H182.351ZM184.059 64.2539C185.202 66.4555 186.801 68.207 188.849 69.4871L189.909 67.7911C188.175 66.7074 186.818 65.2281 185.834 63.3323L184.059 64.2539ZM188.862 69.4951C190.92 70.7385 193.229 71.353 195.762 71.353V69.353C193.567 69.353 191.62 68.8249 189.896 67.7832L188.862 69.4951ZM253.098 23.6836L251.975 28.707L253.927 29.1432L255.05 24.1199L253.098 23.6836ZM253.651 29.6392C255.597 27.7319 257.506 26.3945 259.375 25.5882L258.583 23.7518C256.434 24.6791 254.324 26.1784 252.251 28.211L253.651 29.6392ZM259.369 25.591C261.287 24.7796 263.36 24.3699 265.598 24.3699V22.3699C263.109 22.3699 260.769 22.8269 258.59 23.7491L259.369 25.591ZM265.598 24.3699C269.592 24.3699 273.066 25.2055 276.049 26.8464L277.013 25.094C273.693 23.2677 269.878 22.3699 265.598 22.3699V24.3699ZM276.054 26.8489C279.094 28.5003 281.484 30.762 283.242 33.6421L284.949 32.6001C283.004 29.4127 280.351 26.9071 277.009 25.0915L276.054 26.8489ZM284.829 33.8008C287.747 30.6527 290.894 28.3136 294.266 26.7602L293.429 24.9437C289.788 26.6211 286.433 29.128 283.363 32.4413L284.829 33.8008ZM294.27 26.7582C297.687 25.1637 301.227 24.3699 304.899 24.3699V22.3699C300.927 22.3699 297.099 23.2308 293.424 24.9458L294.27 26.7582ZM304.899 24.3699C309.386 24.3699 313.32 25.4136 316.733 27.4761L317.767 25.7644C314.009 23.4931 309.709 22.3699 304.899 22.3699V24.3699ZM316.74 27.4803C320.166 29.5137 322.816 32.2937 324.7 35.8364L326.466 34.8972C324.41 31.033 321.504 27.982 317.76 25.7603L316.74 27.4803ZM324.702 35.8403C326.588 39.3487 327.538 43.2423 327.538 47.5411H329.538C329.538 42.9356 328.517 38.7131 326.464 34.8933L324.702 35.8403ZM327.538 47.5411C327.538 48.6702 327.444 50.0061 327.25 51.5539L329.235 51.802C329.435 50.1979 329.538 48.7758 329.538 47.5411H327.538ZM327.252 51.5397L322.879 82.8617L324.859 83.1383L329.233 51.8162L327.252 51.5397ZM323.869 82H309.685V84H323.869V82ZM310.676 83.1386L315.167 51.0483L313.187 50.771L308.695 82.8614L310.676 83.1386ZM315.167 51.0511C315.292 50.1773 315.354 49.3027 315.354 48.4275H313.354C313.354 49.2071 313.299 49.9872 313.187 50.7682L315.167 51.0511ZM315.354 48.4275C315.354 45.0057 314.41 42.1338 312.445 39.9058L310.945 41.2291C312.525 43.0198 313.354 45.3879 313.354 48.4275H315.354ZM312.445 39.9058C310.456 37.6516 307.763 36.5534 304.485 36.5534V38.5534C307.274 38.5534 309.388 39.4646 310.945 41.2291L312.445 39.9058ZM304.485 36.5534C301.819 36.5534 299.283 37.2541 296.892 38.6383L297.894 40.3691C299.995 39.1529 302.187 38.5534 304.485 38.5534V36.5534ZM296.897 38.6354C294.556 39.9732 292.594 41.7914 291.015 44.0768L292.661 45.2137C294.076 43.1652 295.818 41.5557 297.889 40.3719L296.897 38.6354ZM291.008 44.0871C289.468 46.3764 288.505 48.8632 288.129 51.5387L290.11 51.8172C290.442 49.4496 291.292 47.248 292.668 45.2034L291.008 44.0871ZM288.129 51.5397L283.756 82.8617L285.736 83.1383L290.11 51.8162L288.129 51.5397ZM284.746 82H270.562V84H284.746V82ZM271.553 83.1404L276.103 51.0501L274.123 50.7693L269.572 82.8596L271.553 83.1404ZM276.103 51.0511C276.227 50.1849 276.29 49.3688 276.29 48.6048H274.29C274.29 49.2592 274.236 49.9797 274.123 50.7682L276.103 51.0511ZM276.29 48.6048C276.29 45.1352 275.302 42.2215 273.255 39.956L271.771 41.2971C273.427 43.1291 274.29 45.5342 274.29 48.6048H276.29ZM273.255 39.956C271.193 37.6755 268.47 36.5534 265.184 36.5534V38.5534C267.967 38.5534 270.129 39.4802 271.771 41.2971L273.255 39.956ZM265.184 36.5534C262.585 36.5534 260.102 37.2808 257.751 38.708L258.789 40.4176C260.851 39.1657 262.978 38.5534 265.184 38.5534V36.5534ZM257.751 38.708C255.418 40.1245 253.462 41.999 251.887 44.3201L253.542 45.4431C254.962 43.3515 256.709 41.6802 258.789 40.4176L257.751 38.708ZM251.88 44.3304C250.344 46.6558 249.382 49.1597 249.006 51.8342L250.986 52.1127C251.32 49.7441 252.17 47.5201 253.549 45.4329L251.88 44.3304ZM249.006 51.8357L244.692 82.8623L246.673 83.1377L250.987 52.1111L249.006 51.8357ZM245.682 82H231.498V84H245.682V82ZM232.489 83.1387L240.763 24.0404L238.782 23.7631L230.508 82.8614L232.489 83.1387ZM239.772 24.9017H254.074V22.9017H239.772V24.9017ZM353.384 15.5145C351.622 15.5145 350.208 14.9378 349.068 13.798L347.654 15.2122C349.193 16.7516 351.127 17.5145 353.384 17.5145V15.5145ZM349.078 13.8083C347.925 12.6211 347.351 11.1987 347.351 9.48177H345.351C345.351 11.7047 346.118 13.6312 347.643 15.2019L349.078 13.8083ZM347.351 9.48177C347.351 8.31785 347.64 7.25165 348.219 6.2643L346.493 5.25286C345.733 6.55063 345.351 7.96656 345.351 9.48177H347.351ZM348.213 6.27307C348.843 5.22395 349.657 4.39466 350.661 3.7715L349.606 2.07222C348.325 2.86742 347.287 3.92928 346.498 5.24408L348.213 6.27307ZM350.648 3.77936C351.684 3.15758 352.749 2.85809 353.857 2.85809V0.858093C352.364 0.858093 350.947 1.26778 349.619 2.06437L350.648 3.77936ZM353.857 2.85809C355.61 2.85809 357.021 3.44778 358.163 4.62332L359.597 3.22974C358.06 1.64736 356.123 0.858093 353.857 0.858093V2.85809ZM358.173 4.63364C359.317 5.77748 359.889 7.17426 359.889 8.89078H361.889C361.889 6.66742 361.123 4.7547 359.587 3.21942L358.173 4.63364ZM359.889 8.89078C359.889 10.0437 359.587 11.1273 358.968 12.1586L360.683 13.1876C361.483 11.8549 361.889 10.417 361.889 8.89078H359.889ZM358.963 12.1674C358.382 13.1593 357.578 13.9666 356.534 14.5932L357.563 16.3082C358.882 15.5164 359.93 14.4719 360.688 13.1788L358.963 12.1674ZM356.521 14.6011C355.531 15.2155 354.491 15.5145 353.384 15.5145V17.5145C354.877 17.5145 356.28 17.1043 357.575 16.3003L356.521 14.6011ZM357.594 23.7631L349.321 82.8614L351.301 83.1387L359.575 24.0404L357.594 23.7631ZM350.311 82H336.127V84H350.311V82ZM337.118 83.1387L345.391 24.0404L343.411 23.7631L335.137 82.8614L337.118 83.1387ZM344.401 24.9017H358.585V22.9017H344.401V24.9017ZM401.475 24.9017H415.718V22.9017H401.475V24.9017ZM414.735 23.7194L413.375 31.0476L415.342 31.4123L416.701 24.0841L414.735 23.7194ZM415.117 31.8816C417.444 29.173 420.043 27.0909 422.912 25.6188L421.999 23.8394C418.879 25.4405 416.08 27.6923 413.6 30.5783L415.117 31.8816ZM422.916 25.6165C425.802 24.1173 428.933 23.3652 432.325 23.3652V21.3652C428.624 21.3652 425.176 22.189 421.994 23.8417L422.916 25.6165ZM432.325 23.3652C437.443 23.3652 442.015 24.5474 446.066 26.8945L447.069 25.164C442.688 22.6257 437.765 21.3652 432.325 21.3652V23.3652ZM446.072 26.898C450.133 29.2131 453.292 32.3737 455.566 36.3913L457.307 35.4061C454.853 31.0711 451.433 27.6521 447.062 25.1605L446.072 26.898ZM455.57 36.3975C457.88 40.4124 459.042 44.8877 459.042 49.8459H461.042C461.042 44.5604 459.8 39.7375 457.303 35.3999L455.57 36.3975ZM459.042 49.8459C459.042 51.0569 458.947 52.4738 458.753 54.1009L460.739 54.3374C460.939 52.655 461.042 51.1564 461.042 49.8459H459.042ZM458.756 54.0777C457.992 59.4269 455.968 64.3776 452.671 68.9399L454.292 70.1114C457.772 65.2967 459.924 60.0431 460.736 54.3606L458.756 54.0777ZM452.67 68.9411C449.409 73.4691 445.346 77.052 440.476 79.6983L441.43 81.4557C446.567 78.665 450.857 74.8803 454.293 70.1101L452.67 68.9411ZM440.476 79.6983C435.613 82.3399 430.517 83.6548 425.174 83.6548V85.6548C430.862 85.6548 436.285 84.2511 441.43 81.4557L440.476 79.6983ZM425.174 83.6548C421.461 83.6548 418.341 82.8417 415.769 81.2615L414.722 82.9656C417.665 84.7737 421.164 85.6548 425.174 85.6548V83.6548ZM415.783 81.2704C413.206 79.6275 411.153 77.4454 409.616 74.7093L407.872 75.6887C409.566 78.7049 411.847 81.1325 414.707 82.9567L415.783 81.2704ZM407.755 75.0535L402.259 112.404L404.238 112.695L409.734 75.3446L407.755 75.0535ZM403.248 111.549H389.006V113.549H403.248V111.549ZM389.996 112.688L402.466 24.041L400.485 23.7625L388.015 112.41L389.996 112.688ZM431.793 35.0169C428.493 35.0169 425.363 35.8966 422.419 37.6383L423.437 39.3597C426.087 37.7919 428.867 37.0169 431.793 37.0169V35.0169ZM422.423 37.6361C419.526 39.3325 417.111 41.6479 415.18 44.566L416.847 45.67C418.619 42.9936 420.814 40.8962 423.433 39.3619L422.423 37.6361ZM415.178 44.5688C413.281 47.4545 412.106 50.6318 411.653 54.0893L413.636 54.349C414.05 51.1875 415.121 48.2974 416.849 45.6672L415.178 44.5688ZM411.653 54.0951C411.529 55.0797 411.468 56.0471 411.468 56.9968H413.468C413.468 56.1341 413.524 55.2497 413.637 54.3432L411.653 54.0951ZM411.468 56.9968C411.468 59.7688 412.006 62.3034 413.103 64.5815L414.905 63.7139C413.953 61.7369 413.468 59.5041 413.468 56.9968H411.468ZM413.113 64.6016C414.256 66.8454 415.875 68.637 417.961 69.957L419.03 68.2668C417.255 67.1441 415.88 65.6262 414.895 63.6937L413.113 64.6016ZM417.973 69.9648C420.083 71.2566 422.535 71.8849 425.292 71.8849V69.8849C422.848 69.8849 420.769 69.3312 419.018 68.2591L417.973 69.9648ZM425.292 71.8849C428.623 71.8849 431.823 71.0292 434.878 69.3366L433.908 67.5871C431.132 69.1252 428.264 69.8849 425.292 69.8849V71.8849ZM434.882 69.3343C437.968 67.6058 440.543 65.2778 442.598 62.3595L440.963 61.208C439.078 63.8843 436.727 66.0084 433.904 67.5893L434.882 69.3343ZM442.592 62.3671C444.695 59.4402 445.98 56.2319 446.436 52.7533L444.453 52.4937C444.042 55.6342 442.884 58.5326 440.968 61.2003L442.592 62.3671ZM446.434 52.7649C446.559 51.8935 446.622 51.0385 446.622 50.2005H444.622C444.622 50.9384 444.566 51.6987 444.454 52.4821L446.434 52.7649ZM446.622 50.2005C446.622 47.4054 445.994 44.8356 444.727 42.5116L442.971 43.4693C444.067 45.4792 444.622 47.7161 444.622 50.2005H446.622ZM444.727 42.5116C443.457 40.1837 441.671 38.3547 439.382 37.0408L438.387 38.7753C440.353 39.9041 441.877 41.4634 442.971 43.4693L444.727 42.5116ZM439.401 37.052C437.144 35.6893 434.599 35.0169 431.793 35.0169V37.0169C434.266 37.0169 436.448 37.6052 438.368 38.7641L439.401 37.052ZM509.181 37.2242C507.13 35.6968 504.646 34.9578 501.787 34.9578V36.9578C504.287 36.9578 506.334 37.5977 507.986 38.8283L509.181 37.2242ZM501.787 34.9578C498.685 34.9578 495.804 35.7781 493.164 37.4124L494.217 39.1129C496.541 37.6741 499.058 36.9578 501.787 36.9578V34.9578ZM493.158 37.4162C490.573 39.0422 488.455 41.2483 486.804 44.0144L488.521 45.0397C490.022 42.5263 491.923 40.5562 494.223 39.1091L493.158 37.4162ZM486.807 44.0087C485.159 46.7293 484.11 49.7158 483.658 52.9584L485.639 53.2342C486.054 50.2517 487.015 47.5255 488.518 45.0453L486.807 44.0087ZM483.658 52.9573L479.462 82.8611L481.443 83.139L485.639 53.2352L483.658 52.9573ZM480.453 82H466.151V84H480.453V82ZM467.141 83.1388L475.415 24.0996L473.434 23.8221L465.161 82.8612L467.141 83.1388ZM474.425 24.9608H488.667V22.9608H474.425V24.9608ZM487.684 23.7797L486.443 30.5169L488.41 30.8792L489.651 24.142L487.684 23.7797ZM488.171 31.3658C490.501 28.7682 493.044 26.7803 495.798 25.3847L494.893 23.6008C491.895 25.1206 489.158 27.2696 486.682 30.0303L488.171 31.3658ZM495.793 25.3872C498.571 23.9982 501.491 23.3061 504.565 23.3061V21.3061C501.177 21.3061 497.951 22.0718 494.898 23.5983L495.793 25.3872ZM504.565 23.3061C507.745 23.3061 510.207 23.6181 511.996 24.2023L512.617 22.3011C510.545 21.6245 507.846 21.3061 504.565 21.3061V23.3061ZM511.337 23.0073L507.614 37.7819L509.553 38.2706L513.276 23.496L511.337 23.0073ZM535.915 83.5366C531.12 83.5366 526.808 82.3783 522.953 80.0733L521.927 81.7898C526.11 84.2916 530.781 85.5366 535.915 85.5366V83.5366ZM522.957 80.0756C519.131 77.7644 516.121 74.6239 513.919 70.6377L512.168 71.6048C514.537 75.8924 517.791 79.2921 521.923 81.7876L522.957 80.0756ZM513.922 70.6442C511.762 66.6653 510.675 62.2217 510.675 57.2923H508.675C508.675 62.5277 509.833 67.3035 512.165 71.5984L513.922 70.6442ZM510.675 57.2923C510.675 55.8072 510.789 54.3005 511.018 52.7718L509.041 52.4752C508.797 54.0984 508.675 55.7043 508.675 57.2923H510.675ZM511.019 52.7649C511.785 47.4059 513.735 42.47 516.879 37.9468L515.236 36.8055C511.918 41.5804 509.85 46.8094 509.04 52.4821L511.019 52.7649ZM516.879 37.9468C520.027 33.4161 523.916 29.8358 528.55 27.1935L527.559 25.4561C522.658 28.2508 518.549 32.038 515.236 36.8055L516.879 37.9468ZM528.547 27.1952C533.213 24.5562 538.048 23.247 543.065 23.247V21.247C537.682 21.247 532.509 22.6563 527.562 25.4543L528.547 27.1952ZM543.065 23.247C547.983 23.247 552.332 24.4076 556.141 26.708L557.175 24.996C553.025 22.4898 548.313 21.247 543.065 21.247V23.247ZM556.141 26.708C559.963 29.0164 562.909 32.1506 564.992 36.1263L566.763 35.1983C564.512 30.9003 561.312 27.4943 557.175 24.996L556.141 26.708ZM564.995 36.1329C567.119 40.1152 568.187 44.5222 568.187 49.3731H570.187C570.187 44.2167 569.048 39.4831 566.76 35.1917L564.995 36.1329ZM568.187 49.3731C568.187 52.351 567.767 55.3536 566.923 58.3833L568.85 58.9198C569.74 55.7244 570.187 52.5414 570.187 49.3731H568.187ZM567.887 57.6515H524.272V59.6515H567.887V57.6515ZM523.276 58.7411C523.608 62.4342 524.885 65.4819 527.164 67.803L528.591 66.4021C526.693 64.4682 525.567 61.8819 525.268 58.562L523.276 58.7411ZM527.17 67.8097C529.511 70.1503 532.572 71.311 536.258 71.3529L536.281 69.353C533.032 69.3161 530.499 68.3099 528.584 66.3955L527.17 67.8097ZM536.254 71.3529C539.108 71.3948 541.818 70.7213 544.369 69.3414L543.417 67.5823C541.161 68.8027 538.788 69.3899 536.284 69.3531L536.254 71.3529ZM544.38 69.3353C546.907 67.9269 549.096 66.0237 550.947 63.6378L549.367 62.4118C547.672 64.5961 545.686 66.3177 543.406 67.5884L544.38 69.3353ZM549.887 63.9875L564.189 68.0062L564.73 66.0808L550.428 62.0621L549.887 63.9875ZM563.599 66.5337C560.526 71.7181 556.502 75.8556 551.52 78.96L552.577 80.6574C557.839 77.3792 562.088 73.0065 565.319 67.5533L563.599 66.5337ZM551.524 78.957C546.549 82.0188 541.351 83.5366 535.915 83.5366V85.5366C541.746 85.5366 547.304 83.9024 552.572 80.6604L551.524 78.957ZM556.298 47.1964C556.172 44.6491 555.522 42.343 554.331 40.3L552.603 41.3077C553.618 43.047 554.189 45.0354 554.3 47.2947L556.298 47.1964ZM554.335 40.3077C553.147 38.2294 551.545 36.6013 549.533 35.4453L548.536 37.1795C550.227 38.151 551.58 39.5172 552.599 41.3L554.335 40.3077ZM549.554 35.4582C547.573 34.2523 545.342 33.6576 542.888 33.6576V35.6576C545.005 35.6576 546.871 36.1661 548.514 37.1666L549.554 35.4582ZM542.888 33.6576C540.241 33.6576 537.665 34.2894 535.172 35.5361L536.066 37.325C538.301 36.2079 540.571 35.6576 542.888 35.6576V33.6576ZM535.166 35.5392C532.721 36.7821 530.571 38.4795 528.717 40.6223L530.229 41.931C531.921 39.9762 533.868 38.443 536.072 37.322L535.166 35.5392ZM528.717 40.6223C526.863 42.7638 525.496 45.1217 524.625 47.693L526.52 48.3346C527.303 46.0205 528.536 43.887 530.229 41.931L528.717 40.6223ZM525.598 49.0135L555.325 48.2452L555.273 46.2459L525.547 47.0142L525.598 49.0135ZM594.258 83.0068C589.515 82.7008 585.34 81.4418 581.709 79.2483L580.675 80.9601C584.609 83.3369 589.101 84.6782 594.129 85.0026L594.258 83.0068ZM581.716 79.2522C578.105 77.0332 575.774 74.1973 574.636 70.749L572.737 71.3754C574.042 75.334 576.715 78.5261 580.669 80.9562L581.716 79.2522ZM574.03 72.0014L586.322 67.51L585.636 65.6314L573.343 70.1229L574.03 72.0014ZM585.06 66.9646C585.758 68.594 587.137 69.9926 589.051 71.1989L590.117 69.5071C588.406 68.4282 587.382 67.3053 586.898 66.1768L585.06 66.9646ZM589.072 71.2121C591.088 72.4131 593.335 73.0077 595.789 73.0077V71.0077C593.673 71.0077 591.783 70.4992 590.096 69.4939L589.072 71.2121ZM595.789 73.0077C598.657 73.0077 601.235 72.3829 603.492 71.105L602.507 69.3645C600.588 70.4506 598.359 71.0077 595.789 71.0077V73.0077ZM603.497 71.102C605.855 69.7488 607.288 67.8063 607.653 65.2963L605.674 65.0084C605.409 66.8322 604.399 68.2781 602.502 69.3675L603.497 71.102ZM607.634 65.3949C607.702 65.1218 607.723 64.8115 607.723 64.5023H605.723C605.723 64.7446 605.704 64.8677 605.693 64.9098L607.634 65.3949ZM607.723 64.5023C607.723 63.6818 607.54 62.9165 607.137 62.2444C606.734 61.5722 606.144 61.0511 605.42 60.665L604.479 62.4297C604.937 62.674 605.234 62.9605 605.422 63.2734C605.61 63.5862 605.723 63.9832 605.723 64.5023H607.723ZM605.455 60.6846C604.194 59.9451 602.375 59.2871 600.058 58.6881L599.558 60.6243C601.812 61.2072 603.42 61.81 604.444 62.41L605.455 60.6846ZM600.041 58.6838L598.564 58.3292L598.097 60.274L599.575 60.6286L600.041 58.6838ZM598.527 58.321C592.928 57.2012 588.436 55.2639 585.004 52.5485L583.763 54.1169C587.501 57.0749 592.308 59.1169 598.135 60.2822L598.527 58.321ZM585.004 52.5485C581.653 49.8975 580.005 46.5199 580.005 42.3404H578.005C578.005 47.1439 579.943 51.0945 583.763 54.1169L585.004 52.5485ZM580.005 42.3404C580.005 41.6442 580.06 40.9038 580.173 40.1179L578.193 39.8351C578.069 40.7039 578.005 41.5394 578.005 42.3404H580.005ZM580.173 40.1164C580.659 36.6754 582 33.6819 584.198 31.1115L582.678 29.8118C580.227 32.6785 578.731 36.0281 578.193 39.8366L580.173 40.1164ZM584.202 31.1061C586.423 28.4721 589.169 26.4568 592.458 25.0584L591.675 23.2179C588.108 24.735 585.102 26.9354 582.673 29.8172L584.202 31.1061ZM592.463 25.0562C595.804 23.6132 599.294 22.8924 602.94 22.8924V20.8924C599.022 20.8924 595.262 21.6688 591.67 23.2201L592.463 25.0562ZM602.94 22.8924C607.638 22.8924 611.761 23.9032 615.337 25.8979L616.311 24.1513C612.401 21.9697 607.934 20.8924 602.94 20.8924V22.8924ZM615.344 25.9018C618.924 27.8614 621.552 30.5174 623.266 33.8717L625.047 32.9615C623.137 29.2239 620.21 26.2853 616.304 24.1474L615.344 25.9018ZM623.702 32.5258L612.001 38.4947L612.91 40.2763L624.611 34.3074L623.702 32.5258ZM613.372 38.9859C612.599 37.2133 611.207 35.7854 609.291 34.6782L608.291 36.41C609.92 37.3516 610.972 38.4846 611.538 39.7851L613.372 38.9859ZM609.314 34.6918C607.425 33.5327 605.373 32.9485 603.177 32.9485V34.9485C604.999 34.9485 606.69 35.428 608.268 36.3964L609.314 34.6918ZM603.177 32.9485C600.153 32.9485 597.517 33.6124 595.317 34.9925L596.38 36.6867C598.199 35.5452 600.448 34.9485 603.177 34.9485V32.9485ZM595.329 34.9851C593.061 36.3635 591.711 38.4175 591.314 41.0692L593.292 41.3659C593.603 39.2897 594.617 37.7585 596.368 36.6941L595.329 34.9851ZM591.308 41.1181L591.248 41.709L593.239 41.908L593.298 41.317L591.308 41.1181ZM591.244 41.8085C591.244 43.3481 591.947 44.5647 593.28 45.3341L594.28 43.6018C593.565 43.1892 593.244 42.6329 593.244 41.8085H591.244ZM593.28 45.3341C594.413 45.9873 596.063 46.605 598.177 47.2031L598.721 45.2787C596.658 44.6948 595.196 44.1305 594.28 43.6018L593.28 45.3341ZM598.194 47.208C599.685 47.6004 600.714 47.9214 601.318 48.1702L602.08 46.3209C601.345 46.0181 600.207 45.6694 598.703 45.2738L598.194 47.208ZM601.403 48.2006C613.367 51.9149 618.783 57.3259 618.783 64.1477H620.783C620.783 55.919 614.144 50.062 601.996 46.2905L601.403 48.2006ZM618.783 64.1477C618.783 64.8856 618.728 65.6459 618.616 66.4293L620.596 66.7121C620.72 65.8407 620.783 64.9857 620.783 64.1477H618.783ZM618.616 66.4309C618.171 69.5793 616.859 72.4164 614.655 74.9574L616.165 76.2681C618.61 73.4508 620.095 70.2598 620.596 66.7105L618.616 66.4309ZM614.654 74.9582C612.473 77.4773 609.742 79.4598 606.441 80.9016L607.241 82.7344C610.795 81.1819 613.777 79.0276 616.166 76.2672L614.654 74.9582ZM606.441 80.9016C603.136 82.3448 599.727 83.0638 596.203 83.0638V85.0638C600.008 85.0638 603.69 84.2856 607.241 82.7344L606.441 80.9016ZM596.203 83.0638C595.302 83.0638 594.67 83.0439 594.284 83.0088L594.103 85.0006C594.584 85.0443 595.292 85.0638 596.203 85.0638V83.0638ZM653.649 83.5366C648.855 83.5366 644.542 82.3782 640.688 80.0733L639.662 81.7898C643.845 84.2916 648.516 85.5366 653.649 85.5366V83.5366ZM640.692 80.0756C636.865 77.7644 633.856 74.6239 631.654 70.6377L629.903 71.6048C632.271 75.8924 635.526 79.2921 639.658 81.7876L640.692 80.0756ZM631.657 70.6442C629.497 66.6653 628.41 62.2217 628.41 57.2923H626.41C626.41 62.5277 627.568 67.3035 629.9 71.5984L631.657 70.6442ZM628.41 57.2923C628.41 55.8072 628.524 54.3005 628.753 52.7718L626.775 52.4752C626.532 54.0984 626.41 55.7042 626.41 57.2923H628.41ZM628.754 52.7649C629.52 47.4059 631.47 42.47 634.614 37.9468L632.971 36.8055C629.653 41.5804 627.585 46.8094 626.774 52.4821L628.754 52.7649ZM634.614 37.9468C637.762 33.4161 641.651 29.8358 646.285 27.1935L645.294 25.4561C640.393 28.2508 636.284 32.038 632.971 36.8055L634.614 37.9468ZM646.282 27.1952C650.948 24.5562 655.783 23.247 660.8 23.247V21.247C655.416 21.247 650.244 22.6563 645.297 25.4543L646.282 27.1952ZM660.8 23.247C665.718 23.247 670.067 24.4076 673.876 26.708L674.91 24.996C670.76 22.4898 666.047 21.247 660.8 21.247V23.247ZM673.876 26.708C677.698 29.0164 680.644 32.1506 682.726 36.1263L684.498 35.1983C682.247 30.9003 679.046 27.4943 674.91 24.996L673.876 26.708ZM682.73 36.1329C684.854 40.1152 685.922 44.5222 685.922 49.3731H687.922C687.922 44.2167 686.783 39.4831 684.495 35.1917L682.73 36.1329ZM685.922 49.3731C685.922 52.351 685.502 55.3536 684.658 58.3833L686.585 58.9198C687.475 55.7244 687.922 52.5414 687.922 49.3731H685.922ZM685.622 57.6515H642.007V59.6515H685.622V57.6515ZM641.011 58.7411C641.343 62.4342 642.62 65.4819 644.898 67.803L646.326 66.4021C644.428 64.4682 643.301 61.8819 643.003 58.562L641.011 58.7411ZM644.905 67.8097C647.246 70.1503 650.307 71.311 653.993 71.3529L654.015 69.353C650.767 69.3161 648.234 68.3099 646.319 66.3955L644.905 67.8097ZM653.989 71.3529C656.843 71.3948 659.553 70.7213 662.104 69.3414L661.152 67.5823C658.896 68.8027 656.523 69.3899 654.019 69.3531L653.989 71.3529ZM662.115 69.3353C664.641 67.9269 666.831 66.0237 668.682 63.6378L667.102 62.4118C665.407 64.5961 663.421 66.3177 661.141 67.5884L662.115 69.3353ZM667.622 63.9875L681.923 68.0062L682.464 66.0808L668.163 62.0621L667.622 63.9875ZM681.334 66.5337C678.261 71.7181 674.237 75.8556 669.254 78.96L670.312 80.6574C675.573 77.3792 679.823 73.0065 683.054 67.5533L681.334 66.5337ZM669.259 78.957C664.284 82.0188 659.086 83.5366 653.649 83.5366V85.5366C659.481 85.5366 665.039 83.9025 670.307 80.6604L669.259 78.957ZM674.032 47.1964C673.907 44.6491 673.257 42.343 672.065 40.3L670.338 41.3077C671.352 43.047 671.924 45.0354 672.035 47.2947L674.032 47.1964ZM672.07 40.3077C670.882 38.2294 669.28 36.6013 667.267 35.4453L666.271 37.1795C667.962 38.151 669.315 39.5172 670.333 41.3L672.07 40.3077ZM667.289 35.4582C665.308 34.2523 663.077 33.6576 660.623 33.6576V35.6576C662.739 35.6576 664.606 36.1661 666.249 37.1666L667.289 35.4582ZM660.623 33.6576C657.976 33.6576 655.4 34.2894 652.907 35.5361L653.801 37.325C656.035 36.2079 658.306 35.6576 660.623 35.6576V33.6576ZM652.901 35.5392C650.456 36.7821 648.306 38.4795 646.452 40.6223L647.964 41.931C649.655 39.9763 651.603 38.443 653.807 37.322L652.901 35.5392ZM646.452 40.6223C644.598 42.7638 643.231 45.1217 642.36 47.693L644.254 48.3346C645.038 46.0205 646.271 43.887 647.964 41.931L646.452 40.6223ZM643.333 49.0135L673.059 48.2452L673.008 46.2459L643.281 47.0142L643.333 49.0135ZM734.878 83.1369L739.133 52.3467L737.152 52.0729L732.897 82.8631L734.878 83.1369ZM739.128 52.3812C739.297 51.4085 739.379 50.3455 739.379 49.1958H737.379C737.379 50.2525 737.303 51.1987 737.157 52.0385L739.128 52.3812ZM739.379 49.1958C739.379 46.5044 738.86 44.0651 737.799 41.9002L736.003 42.7806C736.912 44.6344 737.379 46.7654 737.379 49.1958H739.379ZM737.799 41.9002C736.734 39.7266 735.188 38.0061 733.171 36.7615L732.121 38.4636C733.808 39.5042 735.099 40.9355 736.003 42.7806L737.799 41.9002ZM733.18 36.7666C731.186 35.5098 728.868 34.8987 726.264 34.8987V36.8987C728.545 36.8987 730.482 37.4301 732.113 38.4585L733.18 36.7666ZM726.264 34.8987C723.157 34.8987 720.272 35.7416 717.631 37.4184L718.703 39.1068C721.026 37.6317 723.54 36.8987 726.264 36.8987V34.8987ZM717.641 37.4124C715.021 39.0341 712.864 41.2155 711.171 43.9403L712.87 44.9956C714.408 42.5198 716.349 40.5643 718.694 39.1129L717.641 37.4124ZM711.166 43.9496C709.518 46.6682 708.469 49.6341 708.017 52.8385L709.997 53.1177C710.412 50.1758 711.372 47.4684 712.876 44.9862L711.166 43.9496ZM708.017 52.8397L703.821 82.8616L705.801 83.1384L709.997 53.1165L708.017 52.8397ZM704.811 82H690.627V84H704.811V82ZM691.618 83.1387L699.891 24.0404L697.911 23.7631L689.637 82.8614L691.618 83.1387ZM698.901 24.9017H713.144V22.9017H698.901V24.9017ZM712.16 23.7221L710.919 30.5184L712.887 30.8777L714.128 24.0814L712.16 23.7221ZM712.652 31.3604C714.982 28.7247 717.524 26.7195 720.274 25.3256L719.37 23.5417C716.368 25.0632 713.63 27.2344 711.154 30.0357L712.652 31.3604ZM720.274 25.3256C723.01 23.939 725.908 23.247 728.982 23.247V21.247C725.595 21.247 722.386 22.0127 719.37 23.5417L720.274 25.3256ZM728.982 23.247C733.71 23.247 737.733 24.3317 741.094 26.4604L742.164 24.7708C738.434 22.408 734.025 21.247 728.982 21.247V23.247ZM741.098 26.4631C744.519 28.6054 747.11 31.5317 748.881 35.2638L750.688 34.4061C748.756 30.3371 745.91 27.1172 742.16 24.7681L741.098 26.4631ZM748.887 35.2748C750.703 38.9835 751.621 43.1642 751.621 47.8365H753.621C753.621 42.8956 752.649 38.4085 750.683 34.3951L748.887 35.2748ZM751.621 47.8365C751.621 49.403 751.507 50.9908 751.277 52.6003L753.257 52.8831C753.5 51.1831 753.621 49.5008 753.621 47.8365H751.621ZM751.276 52.6043L747.08 82.8627L749.061 83.1374L753.257 52.8791L751.276 52.6043ZM748.071 82H733.887V84H748.071V82ZM786.315 38.9501L780.109 82.8601L782.09 83.1399L788.295 39.2299L786.315 38.9501ZM781.099 82H766.916V84H781.099V82ZM767.906 83.1399L774.111 39.2299L772.131 38.9501L765.926 82.8601L767.906 83.1399ZM773.121 38.09H764.316V40.09H773.121V38.09ZM765.306 39.2262L767.256 25.0426L765.275 24.7702L763.325 38.9538L765.306 39.2262ZM766.266 25.9064H775.071V23.9064H766.266V25.9064ZM776.062 25.0441L778.78 5.48254L776.799 5.20724L774.081 24.7688L776.062 25.0441ZM777.79 6.34489H791.974V4.34489H777.79V6.34489ZM790.983 5.20724L788.265 24.7688L790.245 25.0441L792.964 5.48254L790.983 5.20724ZM789.255 25.9064H800.838V23.9064H789.255V25.9064ZM799.848 24.7702L797.897 38.9538L799.879 39.2262L801.829 25.0426L799.848 24.7702ZM798.888 38.09H787.305V40.09H798.888V38.09ZM821.186 83.0068C816.443 82.7008 812.268 81.4418 808.637 79.2483L807.603 80.9601C811.537 83.3369 816.03 84.6782 821.058 85.0026L821.186 83.0068ZM808.644 79.2522C805.033 77.0332 802.702 74.1973 801.564 70.749L799.665 71.3754C800.971 75.334 803.643 78.5261 807.597 80.9562L808.644 79.2522ZM800.958 72.0014L813.25 67.51L812.564 65.6314L800.272 70.1229L800.958 72.0014ZM811.988 66.9646C812.686 68.594 814.066 69.9926 815.979 71.1989L817.046 69.5071C815.334 68.4282 814.31 67.3053 813.826 66.1768L811.988 66.9646ZM816 71.2121C818.016 72.4131 820.264 73.0077 822.718 73.0077V71.0077C820.601 71.0077 818.712 70.4992 817.024 69.4939L816 71.2121ZM822.718 73.0077C825.585 73.0077 828.163 72.3829 830.42 71.105L829.435 69.3645C827.516 70.4506 825.287 71.0077 822.718 71.0077V73.0077ZM830.425 71.102C832.783 69.7488 834.216 67.8063 834.581 65.2963L832.602 65.0084C832.337 66.8322 831.327 68.2781 829.43 69.3675L830.425 71.102ZM834.562 65.3949C834.63 65.1218 834.651 64.8115 834.651 64.5023H832.651C832.651 64.7446 832.632 64.8677 832.622 64.9098L834.562 65.3949ZM834.651 64.5023C834.651 63.6818 834.468 62.9165 834.065 62.2444C833.662 61.5722 833.072 61.0511 832.348 60.665L831.407 62.4297C831.865 62.674 832.162 62.9605 832.35 63.2734C832.538 63.5862 832.651 63.9832 832.651 64.5023H834.651ZM832.384 60.6846C831.122 59.9451 829.303 59.2871 826.987 58.6881L826.486 60.6243C828.74 61.2072 830.348 61.81 831.372 62.41L832.384 60.6846ZM826.97 58.6838L825.492 58.3292L825.025 60.274L826.503 60.6286L826.97 58.6838ZM825.455 58.321C819.856 57.2012 815.364 55.2639 811.932 52.5485L810.691 54.1169C814.43 57.0749 819.236 59.1169 825.063 60.2822L825.455 58.321ZM811.932 52.5485C808.581 49.8975 806.934 46.5199 806.934 42.3404H804.934C804.934 47.1439 806.871 51.0945 810.691 54.1169L811.932 52.5485ZM806.934 42.3404C806.934 41.6442 806.989 40.9038 807.101 40.1179L805.121 39.8351C804.997 40.7039 804.934 41.5394 804.934 42.3404H806.934ZM807.101 40.1164C807.587 36.6754 808.928 33.6819 811.126 31.1115L809.606 29.8118C807.155 32.6785 805.659 36.0281 805.121 39.8366L807.101 40.1164ZM811.131 31.1061C813.351 28.4721 816.097 26.4568 819.386 25.0584L818.603 23.2179C815.036 24.735 812.03 26.9354 809.601 29.8172L811.131 31.1061ZM819.391 25.0562C822.733 23.6132 826.222 22.8924 829.868 22.8924V20.8924C825.95 20.8924 822.19 21.6688 818.598 23.2201L819.391 25.0562ZM829.868 22.8924C834.567 22.8924 838.689 23.9032 842.265 25.8979L843.239 24.1513C839.329 21.9697 834.862 20.8924 829.868 20.8924V22.8924ZM842.272 25.9018C845.852 27.8614 848.48 30.5174 850.194 33.8717L851.975 32.9615C850.065 29.2239 847.138 26.2853 843.232 24.1474L842.272 25.9018ZM850.63 32.5258L838.929 38.4947L839.838 40.2763L851.539 34.3074L850.63 32.5258ZM840.3 38.9859C839.527 37.2133 838.136 35.7854 836.219 34.6782L835.219 36.41C836.849 37.3516 837.9 38.4846 838.467 39.7851L840.3 38.9859ZM836.242 34.6918C834.353 33.5327 832.301 32.9485 830.105 32.9485V34.9485C831.927 34.9485 833.618 35.428 835.196 36.3964L836.242 34.6918ZM830.105 32.9485C827.081 32.9485 824.445 33.6124 822.245 34.9925L823.308 36.6867C825.127 35.5452 827.377 34.9485 830.105 34.9485V32.9485ZM822.257 34.9851C819.99 36.3635 818.64 38.4175 818.242 41.0692L820.22 41.3659C820.531 39.2897 821.545 37.7585 823.296 36.6941L822.257 34.9851ZM818.236 41.1181L818.177 41.709L820.167 41.908L820.226 41.317L818.236 41.1181ZM818.172 41.8085C818.172 43.3481 818.875 44.5647 820.209 45.3341L821.208 43.6018C820.493 43.1892 820.172 42.6329 820.172 41.8085H818.172ZM820.209 45.3341C821.341 45.9873 822.991 46.605 825.105 47.2031L825.649 45.2787C823.586 44.6948 822.124 44.1305 821.208 43.6018L820.209 45.3341ZM825.123 47.208C826.614 47.6004 827.642 47.9214 828.247 48.1702L829.008 46.3209C828.273 46.0181 827.135 45.6694 825.632 45.2738L825.123 47.208ZM828.331 48.2006C840.295 51.9149 845.711 57.3259 845.711 64.1477H847.711C847.711 55.919 841.072 50.062 828.924 46.2905L828.331 48.2006ZM845.711 64.1477C845.711 64.8856 845.656 65.6459 845.544 66.4293L847.524 66.7121C847.649 65.8407 847.711 64.9857 847.711 64.1477H845.711ZM845.544 66.4309C845.1 69.5793 843.788 72.4164 841.583 74.9574L843.094 76.2681C845.538 73.4508 847.023 70.2598 847.524 66.7105L845.544 66.4309ZM841.582 74.9582C839.401 77.4773 836.67 79.4598 833.369 80.9016L834.169 82.7344C837.724 81.1819 840.705 79.0276 843.094 76.2672L841.582 74.9582ZM833.369 80.9016C830.065 82.3448 826.655 83.0638 823.131 83.0638V85.0638C826.936 85.0638 830.618 84.2856 834.169 82.7344L833.369 80.9016ZM823.131 83.0638C822.23 83.0638 821.598 83.0439 821.212 83.0088L821.031 85.0006C821.512 85.0443 822.22 85.0638 823.131 85.0638V83.0638Z" fill="currentColor"/>
</svg>
